<svg id="4e7c9235-1db7-48d4-beea-4168a35463c4" data-name="Livello 1" xmlns="http://www.w3.org/2000/svg" viewBox="0 0 130 130"><defs><style>.\30 e2e1cc9-f522-45aa-a30d-1fd70c7f0514{fill:none;stroke:#242d3c;stroke-miterlimit:10;stroke-width:3px;}</style></defs><title>MyCamper</title><g id="7c5d5d94-55b1-46cf-a1ca-e9d3b2f3c3b3" data-name="A-Class"><line class="0e2e1cc9-f522-45aa-a30d-1fd70c7f0514" x1="38.33" y1="88.5" x2="88.5" y2="88.5"/><polygon class="0e2e1cc9-f522-45aa-a30d-1fd70c7f0514" points="41.5 62.5 29 62.5 16.5 62.5 16.5 47.5 41.5 47.5 41.5 62.5"/><path class="0e2e1cc9-f522-45aa-a30d-1fd70c7f0514" d="M55.5,88V49.5a2,2,0,0,1,2-2h15a2,2,0,0,1,2,2V88"/><circle class="0e2e1cc9-f522-45aa-a30d-1fd70c7f0514" cx="29" cy="89" r="8.5"/><circle class="0e2e1cc9-f522-45aa-a30d-1fd70c7f0514" cx="97" cy="89" r="8.5"/><line class="0e2e1cc9-f522-45aa-a30d-1fd70c7f0514" x1="29" y1="47" x2="29" y2="63"/><path class="0e2e1cc9-f522-45aa-a30d-1fd70c7f0514" d="M105.5,89h19.58a2,2,0,0,0,2-2,69.85,69.85,0,0,0-27-57.13,2,2,0,0,0-1.22-.41H4.5a2,2,0,0,0-2,2v55a2,2,0,0,0,2,2H20.33"/><line class="0e2e1cc9-f522-45aa-a30d-1fd70c7f0514" x1="102" y1="48" x2="102" y2="65"/><path class="0e2e1cc9-f522-45aa-a30d-1fd70c7f0514" d="M125.5,70.5l-18.17-4.4L92.5,62.5v-15h23"/></g></svg>