<?xml version="1.0" encoding="UTF-8"?>
<svg width="21px" height="25px" viewBox="0 0 21 25" version="1.1" xmlns="http://www.w3.org/2000/svg" xmlns:xlink="http://www.w3.org/1999/xlink">
    <!-- Generator: sketchtool 61.1 (101010) - https://sketch.com -->
    <title>3A9D537E-CB22-497D-9954-4935A839A5C5</title>
    <desc>Created with sketchtool.</desc>
    <g id="01_Desktop" stroke="none" stroke-width="1" fill="none" fill-rule="evenodd">
        <g id="page/rent/SEO" transform="translate(-171.000000, -1090.000000)" fill="#242D3C" stroke="#FFFFFF">
            <g id="molecule/teaser/ratings/v6-copy-3" transform="translate(100.625000, 836.500000)">
                <g id="Group" transform="translate(14.000000, 251.000000)">
                    <g id="atom/icon/bed" transform="translate(57.000000, 3.000000)">
                        <path d="M3.30692279,7.54772927 L3.30692279,3.12559291 C3.30692279,1.52677319 4.40650305,0.218181818 5.74995572,0.218181818 L14.4423272,0.218181818 C15.7857799,0.218181818 16.8853601,1.52677319 16.8853601,3.12559291 L16.8853601,7.54772927" id="Stroke-3"></path>
                        <path d="M5.61862654,7.54772927 C5.61862654,5.24436233 7.18699336,3.3778762 9.12159968,3.3778762 L11.0699938,3.3778762 C13.0054619,3.3778762 14.5738287,5.24436233 14.5738287,7.54772927" id="Stroke-5"></path>
                        <path d="M18.2384643,7.54772927 L1.72407874,7.54772927 C1.05278328,7.54772927 0.502993151,8.20202496 0.502993151,9.00092205 L0.502993151,18.9763674 L0.502993151,19.5578496 L0.502993151,22.7934341 C0.502993151,23.2723621 0.832177834,23.6651447 1.23547216,23.6651447 L2.42467337,23.6651447 C2.8279677,23.6651447 3.15801412,23.2723621 3.15801412,22.7934341 L3.15801412,19.5578496 L16.8045289,19.5578496 L16.8045289,22.7934341 C16.8045289,23.2723621 17.1345753,23.6651447 17.5378697,23.6651447 L18.7270709,23.6651447 C19.1303652,23.6651447 19.4595499,23.2723621 19.4595499,22.7934341 L19.4595499,19.5578496 L19.4595499,18.9763674 L19.4595499,9.00092205 C19.4595499,8.20202496 18.9097598,7.54772927 18.2384643,7.54772927 Z M0.502906977,14.912863 L19.4603254,14.912863" id="Stroke-8"></path>
                    </g>
                </g>
            </g>
        </g>
    </g>
</svg>