<?xml version="1.0" encoding="UTF-8"?>
<svg width="24px" height="24px" viewBox="0 0 24 24" version="1.1" xmlns="http://www.w3.org/2000/svg" xmlns:xlink="http://www.w3.org/1999/xlink">
    <!-- Generator: Sketch 51.2 (57519) - http://www.bohemiancoding.com/sketch -->
    <title>book_fill</title>
    <desc>Created with Sketch.</desc>
    <defs></defs>
    <g id="00_Assets" stroke="none" stroke-width="1" fill="none" fill-rule="evenodd">
        <g id="A01d_Buchenbox" transform="translate(-22.000000, -223.000000)">
            <g id="book_fill" transform="translate(22.000000, 223.000000)">
                <circle id="Oval-3" fill="#F1D024" cx="12" cy="12" r="12"></circle>
                <g id="flash" transform="translate(8.000000, 4.000000)" fill="#FFFFFF">
                    <path d="M1.53482477,15.5585386 C1.49460082,15.5585386 1.45380224,15.5499192 1.41817532,15.5275087 C1.32393636,15.4711952 1.2814139,15.3545458 1.31933934,15.2511128 L3.7189851,8.64978839 L0.816539994,7.8217497 C0.742413005,7.8010631 0.684375596,7.74302569 0.6596666,7.6688987 C0.637256115,7.59477171 0.655069577,7.5120253 0.704487569,7.45341327 L6.5921242,0.459043462 C6.66165416,0.376297056 6.78060212,0.355610454 6.87484108,0.405028447 C6.97137856,0.45674495 7.01849804,0.567073491 6.98689351,0.672230382 L5.29001756,6.55986701 L8.20797762,7.39077884 C8.28440312,7.41318932 8.34301516,7.47122673 8.36542564,7.54535372 C8.38783613,7.62177922 8.37232118,7.70280174 8.32060467,7.76313766 L1.71008625,15.4780908 C1.66526528,15.5321058 1.59975771,15.5585386 1.53482477,15.5585386 Z" id="Fill-1"></path>
                </g>
            </g>
        </g>
    </g>
</svg>