<svg id="30887cc1-71de-46cb-9f9f-14d0945bae06" data-name="Livello 1" xmlns="http://www.w3.org/2000/svg" viewBox="0 0 130 130"><defs><style>.\31 6f367fc-4e49-43cb-bbc0-ea9b6eb5e45e,.\39 03de66e-7c7a-4013-9321-62f04aebfa7f{fill:none;stroke:#242d3c;stroke-miterlimit:10;stroke-width:3px;}.\31 6f367fc-4e49-43cb-bbc0-ea9b6eb5e45e{stroke-linecap:round;}</style></defs><title>MyCamper</title><g id="9d5037ff-ecb7-4390-926c-6404c2324719" data-name="Caravan"><polygon class="903de66e-7c7a-4013-9321-62f04aebfa7f" points="50.5 64.5 38 64.5 25.5 64.5 25.5 49.5 50.5 49.5 50.5 64.5"/><line class="903de66e-7c7a-4013-9321-62f04aebfa7f" x1="38" y1="49" x2="38" y2="65"/><path class="903de66e-7c7a-4013-9321-62f04aebfa7f" d="M67.5,88.5v-37a2,2,0,0,1,2-2h15a2,2,0,0,1,2,2v37"/><circle class="903de66e-7c7a-4013-9321-62f04aebfa7f" cx="42" cy="88.5" r="8.5"/><path class="903de66e-7c7a-4013-9321-62f04aebfa7f" d="M34,88.5H22.5a14,14,0,0,1-14-14v-29a14,14,0,0,1,14-14h74a14,14,0,0,1,14,14v29a14,14,0,0,1-14,14"/><line class="16f367fc-4e49-43cb-bbc0-ea9b6eb5e45e" x1="121.5" y1="97" x2="121.5" y2="83"/><line class="903de66e-7c7a-4013-9321-62f04aebfa7f" x1="122" y1="88.5" x2="51.33" y2="88.5"/></g></svg>