<?xml version="1.0" encoding="UTF-8"?>
<svg viewBox="0 0 18 26" version="1.1" xmlns="http://www.w3.org/2000/svg" xmlns:xlink="http://www.w3.org/1999/xlink">
    <!-- Generator: Sketch 51.1 (57501) - http://www.bohemiancoding.com/sketch -->
    <title>car-seat-with-seatbelt</title>
    <desc>Created with Sketch.</desc>
    <defs></defs>
    <g id="01_Desktop" stroke="none" stroke-width="1" fill="none" fill-rule="evenodd">
        <g id="20_Mieten_Detail" transform="translate(-273.000000, -835.000000)" fill="#242D3C">
            <path d="M291,856.052671 L291,858.160499 C291,859.726178 289.748492,861 288.210731,861 L275.78877,861 C274.251109,861 273,859.726178 273,858.160499 L273,856.052671 C273,855.648625 273.321685,855.320693 273.718527,855.320693 L273.909562,855.320693 C273.908065,855.300064 273.907266,855.278622 273.907266,855.25718 L273.907266,853.296195 C273.906068,853.252904 273.908763,853.209715 273.91545,853.167237 C273.931819,853.059214 273.971144,852.959219 274.028934,852.872231 C274.085026,852.786564 274.159484,852.711872 274.249612,852.655879 C274.286242,852.633319 274.324768,852.613401 274.364991,852.597549 C274.649548,852.476924 274.932607,852.352235 275.211773,852.224802 L275.211773,843.284977 C275.211773,841.831692 276.120237,840.555024 277.415761,840.063584 C277.414264,840.023545 277.413465,839.983811 277.413465,839.943366 L277.413465,838.136337 C277.413465,836.406845 278.795125,835 280.493479,835 L283.505722,835 C285.204376,835 286.586135,836.406845 286.586135,838.136337 L286.586135,839.943366 C286.586135,839.983811 286.585337,840.023951 286.58384,840.063584 C287.094564,840.256969 287.552289,840.574129 287.917591,840.986508 C287.930466,840.961915 287.942942,840.93773 287.955818,840.913544 C288.140565,840.555837 288.575334,840.418852 288.926563,840.607461 C289.277492,840.795968 289.412035,841.239037 289.226789,841.596235 C287.881759,844.19154 285.928392,846.596712 283.421483,848.743868 C281.420208,850.457913 279.14845,851.938636 276.649226,853.159616 L276.649226,855.3211 L287.350275,855.3211 L287.350275,846.515009 C287.350275,846.110861 287.67196,845.783336 288.068902,845.783336 C288.466142,845.783336 288.787828,846.110861 288.787828,846.515009 L288.787828,855.320693 L290.281473,855.320693 C290.677916,855.320693 291,855.648625 291,856.052671 Z M278.850519,839.943366 C278.850519,840.093359 278.869982,840.238271 278.906312,840.37678 C278.912101,840.394666 278.917591,840.412957 278.921883,840.431249 C279.12739,841.116786 279.754292,841.61656 280.493479,841.61656 L283.505722,841.61656 C284.24491,841.61656 284.871812,841.116786 285.077718,840.431554 C285.08201,840.412957 285.0874,840.394259 285.093288,840.376374 C285.129519,840.238271 285.149082,840.092952 285.149082,839.943366 L285.149082,838.136337 C285.149082,837.213819 284.411791,836.463244 283.505722,836.463244 L280.493479,836.463244 C279.587411,836.463244 278.850519,837.213819 278.850519,838.136337 L278.850519,839.943366 Z M276.649226,851.525343 C281.135253,849.206752 284.82041,845.985054 287.122211,842.360021 C286.91361,841.964206 286.583041,841.656192 286.190791,841.479574 C285.661702,842.433899 284.656623,843.079702 283.505722,843.079702 L280.493479,843.079702 C279.342978,843.079702 278.337499,842.433899 277.80881,841.479574 C277.121823,841.788401 276.649226,842.490604 276.649226,843.284977 L276.649226,851.525343 Z M289.562447,856.784242 L288.079781,856.784242 C288.076288,856.784242 288.072395,856.784242 288.068902,856.784242 L275.930699,856.784242 C275.926807,856.784242 275.923313,856.784242 275.91982,856.784242 L274.437054,856.784242 L274.437054,858.160499 C274.437054,858.919102 275.043794,859.536756 275.78877,859.536756 L288.210731,859.536756 C288.956206,859.536756 289.562447,858.919102 289.562447,858.160499 L289.562447,856.784242 Z" id="car-seat-with-seatbelt"></path>
        </g>
    </g>
</svg>
