<svg id="19c6d493-eebd-4c8e-8137-3bbd659a91c9" data-name="Livello 1" xmlns="http://www.w3.org/2000/svg" viewBox="0 0 130 130"><defs><style>.e9bb2a89-558a-45d8-b75e-002387ad7f7b{fill:#f15424;}.\34 ce55c75-d352-460f-b4e7-3d51a1f7d8f5{fill:#fff;}.\38 ccf4f06-350d-4b57-805b-58e33cb589cd{fill:#57c5d0;}.a4d72124-c9fe-41de-920c-540bb79f7498{fill:#242d3c;}.\30 907bac3-0596-4aa1-a7e1-7ea7e7e171d2,.\34 b2b2428-f645-4d62-83b8-b630868a2d06,.\36 e6222bb-5d65-48b3-ad8c-26d93fbc68ad{fill:none;stroke-miterlimit:10;stroke-width:3px;}.\30 907bac3-0596-4aa1-a7e1-7ea7e7e171d2,.\34 b2b2428-f645-4d62-83b8-b630868a2d06{stroke:#242d3c;}.\34 b2b2428-f645-4d62-83b8-b630868a2d06{stroke-linecap:round;}.\36 e6222bb-5d65-48b3-ad8c-26d93fbc68ad{stroke:#f8fbff;}</style></defs><title>My-Camper</title><g id="9eeeeef5-f7d7-4c3d-b443-2e64cc4d5dda" data-name="Clarify Details And Confirm Colored"><path class="e9bb2a89-558a-45d8-b75e-002387ad7f7b" d="M117.5,103c0,0.17,0,.33,0,0.5a13.5,13.5,0,0,1-27,0c0-.17,0-0.33,0-0.5A13.5,13.5,0,0,1,117.5,103Z"/><path class="4ce55c75-d352-460f-b4e7-3d51a1f7d8f5" d="M76,80a0.83,0.83,0,0,1,0,.15,5,5,0,0,1,.09,1,4.93,4.93,0,0,1-9.86,0,4.28,4.28,0,0,1,.1-1h0A5,5,0,0,1,76,80Z"/><path class="4ce55c75-d352-460f-b4e7-3d51a1f7d8f5" d="M29.24,80a5,5,0,0,1,9.61,0s0,0.07,0,.1a4.28,4.28,0,0,1,.1,1,4.94,4.94,0,0,1-9.87,0,5,5,0,0,1,.1-1A0.83,0.83,0,0,1,29.24,80Z"/><path class="e9bb2a89-558a-45d8-b75e-002387ad7f7b" d="M58.71,79.65V80H48.84V61.42a0.77,0.77,0,0,1,.8-0.73h8.27a0.77,0.77,0,0,1,.8.73V79.65Z"/><polygon class="8ccf4f06-350d-4b57-805b-58e33cb589cd" points="81.96 69.07 69.26 69.07 69.26 60.69 76.19 60.69 76.19 60.89 81.96 69.07"/><rect class="a4d72124-c9fe-41de-920c-540bb79f7498" x="29.1" y="60.69" width="13.67" height="7.44"/><path class="4ce55c75-d352-460f-b4e7-3d51a1f7d8f5" d="M84.7,73a4.59,4.59,0,0,1,.57,2.23,4.91,4.91,0,0,1-5,4.84H76a5,5,0,0,0-9.63.14L65.83,80H58.71V61.42a0.77,0.77,0,0,0-.8-0.73H49.64a0.77,0.77,0,0,0-.8.73V80H39.07l-0.22,0a5,5,0,0,0-9.61,0H23a0.76,0.76,0,0,1-.76-0.75V51.77A0.76,0.76,0,0,1,23,51H78.64a4.84,4.84,0,1,1,0,9.67H69.26v8.38H82ZM42.77,68.13V60.69H29.1v7.44H42.77Z"/><path class="4ce55c75-d352-460f-b4e7-3d51a1f7d8f5" d="M90.5,103.5H8.5a2,2,0,0,1-2-2v-67h119v67a2,2,0,0,1-2,2h-6c0-.17,0-0.33,0-0.5a13.5,13.5,0,0,0-27,0c0,0.17,0,.33,0,0.5h0ZM39.07,80H65.83l0.57,0.14h0a4.28,4.28,0,0,0-.1,1,4.93,4.93,0,0,0,9.86,0,5,5,0,0,0-.09-1A0.83,0.83,0,0,0,76,80H80.3a4.91,4.91,0,0,0,5-4.84A4.59,4.59,0,0,0,84.7,73L82,69.07l-5.77-8.18v-0.2h2.45a4.84,4.84,0,1,0,0-9.67H23a0.76,0.76,0,0,0-.76.75V79.28A0.76,0.76,0,0,0,23,80h6.21a0.83,0.83,0,0,0,0,.15,5,5,0,0,0-.1,1,4.94,4.94,0,0,0,9.87,0,4.28,4.28,0,0,0-.1-1s0-.07,0-0.1Z"/><path class="8ccf4f06-350d-4b57-805b-58e33cb589cd" d="M125.5,16.5v18H6.5v-18h119ZM24.5,27V24h-3v3h3Zm-7,0V24h-3v3h3Z"/><rect class="a4d72124-c9fe-41de-920c-540bb79f7498" x="21.5" y="24" width="3" height="3"/><rect class="a4d72124-c9fe-41de-920c-540bb79f7498" x="14.5" y="24" width="3" height="3"/><path class="0907bac3-0596-4aa1-a7e1-7ea7e7e171d2" d="M90.5,103.5H8.5a2,2,0,0,1-2-2v-85h119v85a2,2,0,0,1-2,2h-6"/><line class="4b2b2428-f645-4d62-83b8-b630868a2d06" x1="97.5" y1="60.5" x2="108.5" y2="60.5"/><line class="4b2b2428-f645-4d62-83b8-b630868a2d06" x1="95.5" y1="68.5" x2="111.5" y2="68.5"/><rect class="8ccf4f06-350d-4b57-805b-58e33cb589cd" x="29.1" y="60.69" width="13.67" height="7.44"/><polyline class="0907bac3-0596-4aa1-a7e1-7ea7e7e171d2" points="65.83 80.03 58.71 80.03 48.84 80.03 39.07 80.03"/><path class="0907bac3-0596-4aa1-a7e1-7ea7e7e171d2" d="M38.85,80.08s0,0.07,0,.1a4.28,4.28,0,0,1,.1,1,4.94,4.94,0,0,1-9.87,0,5,5,0,0,1,.1-1,0.83,0.83,0,0,1,0-.15A5,5,0,0,1,38.85,80.08Z"/><polyline class="0907bac3-0596-4aa1-a7e1-7ea7e7e171d2" points="80.96 80.03 80.3 80.03 76.03 80.03 75.75 80.03"/><path class="0907bac3-0596-4aa1-a7e1-7ea7e7e171d2" d="M76.19,60.89L82,69.07,84.7,73a4.59,4.59,0,0,1,.57,2.23,4.91,4.91,0,0,1-5,4.84"/><path class="0907bac3-0596-4aa1-a7e1-7ea7e7e171d2" d="M48.84,79.65V61.42a0.77,0.77,0,0,1,.8-0.73h8.27a0.77,0.77,0,0,1,.8.73V79.65"/><path class="0907bac3-0596-4aa1-a7e1-7ea7e7e171d2" d="M82,69.07H69.26V60.69h9.38a4.84,4.84,0,1,0,0-9.67H23a0.76,0.76,0,0,0-.76.75V79.28A0.76,0.76,0,0,0,23,80h6.76"/><path class="0907bac3-0596-4aa1-a7e1-7ea7e7e171d2" d="M76,80a0.83,0.83,0,0,1,0,.15,5,5,0,0,1,.09,1,4.93,4.93,0,0,1-9.86,0,4.28,4.28,0,0,1,.1-1h0A5,5,0,0,1,76,80Z"/><polyline class="0907bac3-0596-4aa1-a7e1-7ea7e7e171d2" points="6 34.5 6.5 34.5 125.5 34.5"/><line class="4b2b2428-f645-4d62-83b8-b630868a2d06" x1="95.5" y1="76.5" x2="111.5" y2="76.5"/><path class="0907bac3-0596-4aa1-a7e1-7ea7e7e171d2" d="M90.51,103.5c0-.17,0-0.33,0-0.5a13.5,13.5,0,0,1,27,0c0,0.17,0,.33,0,0.5A13.5,13.5,0,0,1,90.51,103.5Z"/><polyline class="6e6222bb-5d65-48b3-ad8c-26d93fbc68ad" points="98.87 102.82 102.99 106.07 108.88 98.7"/></g></svg>