<?xml version="1.0" encoding="UTF-8"?>
<svg viewBox="0 0 43 39" version="1.1" xmlns="http://www.w3.org/2000/svg" xmlns:xlink="http://www.w3.org/1999/xlink">
  <path
    d="M32.8313127,9.33326966 C32.8313127,10.618809 31.8845739,11.3998315 31.1937663,11.9732921 C30.9322199,12.1906404 30.4450344,12.5872135 30.4462165,12.7350337 C30.4507973,13.3159438 29.9786838,13.7797079 29.3910172,13.7797079 L29.3818557,13.7797079 C28.7989175,13.7797079 28.3232577,13.3301124 28.318677,12.7521236 C28.3087766,11.613236 29.1498625,10.9313933 29.8257457,10.3704944 C30.3556357,9.93068539 30.7036254,9.6208764 30.7036254,9.33721348 C30.7036254,8.76375281 30.231512,8.29706742 29.6507904,8.29706742 C29.0706598,8.29706742 28.5979553,8.76375281 28.5979553,9.33721348 C28.5979553,9.9181236 28.1217045,10.3893371 27.5341856,10.3893371 C26.9465189,10.3893371 26.4704158,9.9181236 26.4704158,9.33721348 C26.4704158,7.60383146 27.8972474,6.19398876 29.6507904,6.19398876 C31.4043333,6.19340449 32.8313127,7.59988764 32.8313127,9.33326966 Z M29.4112612,14.7509101 C28.8235945,14.7509101 28.371134,15.2215393 28.371134,15.8024494 L28.371134,15.8104831 C28.371134,16.3912472 28.8241856,16.8580787 29.4112612,16.8580787 C29.9989278,16.8580787 30.475622,16.3833596 30.475622,15.8024494 C30.475622,15.2215393 29.9995189,14.7509101 29.4112612,14.7509101 Z M7.96667354,22.0764831 C7.37915464,22.0764831 6.90290378,22.5472584 6.90290378,23.1280225 C6.90290378,23.7089326 7.37915464,24.1797079 7.96667354,24.1797079 L8.0550378,24.1797079 C8.64314777,24.1797079 9.11939863,23.7089326 9.11939863,23.1280225 C9.11939863,22.5472584 8.64314777,22.0764831 8.0550378,22.0764831 L7.96667354,22.0764831 Z M11.664378,22.0764831 C11.0767113,22.0764831 10.6004605,22.5472584 10.6004605,23.1280225 C10.6004605,23.7089326 11.0767113,24.1797079 11.664378,24.1797079 L11.7525945,24.1797079 C12.3402612,24.1797079 12.8163643,23.7089326 12.8163643,23.1280225 C12.8163643,22.5472584 12.3402612,22.0764831 11.7525945,22.0764831 L11.664378,22.0764831 Z M42.9110447,5.27873034 L42.9110447,17.1164719 C42.9110447,19.9192135 40.6381031,22.1934831 37.8027629,22.1934831 L24.0050825,22.1934831 C23.7355567,22.1934831 23.5133162,22.1917303 23.3274261,22.1877865 C23.1323746,22.1836966 22.9135326,22.1826742 22.8281237,22.1917303 C22.7393162,22.2504494 22.5204742,22.4479326 22.3103505,22.6397191 C22.2273058,22.7149438 22.1325876,22.7987865 22.0310722,22.8906629 L18.1273814,26.4076742 C17.8161856,26.6884157 17.3555979,26.7608652 16.9694845,26.5931798 C16.5838144,26.4249101 16.3131065,26.047764 16.3131065,25.6305955 L16.3131065,14.4809775 L5.16842268,14.4809775 C3.50605155,14.4809775 2.12753952,15.827573 2.12753952,17.4702472 L2.12753952,29.3079888 C2.12753952,30.9512472 3.50605155,32.2430674 5.16842268,32.2430674 L20.5798591,32.2430674 C20.8453952,32.2430674 21.0936426,32.363427 21.2898763,32.5403146 L24.4703986,35.4388764 L24.4703986,25.4428989 C24.4703986,24.8619888 24.9465017,24.3913596 25.5341684,24.3913596 C26.1216873,24.3913596 26.5979381,24.8619888 26.5979381,25.4428989 L26.5979381,37.8221124 C26.5979381,38.2391348 26.3566357,38.6105843 25.9711134,38.779 C25.8330997,38.8388876 25.6946426,38.8628427 25.5496838,38.8628427 C25.2888763,38.8628427 25.0319107,38.757236 24.8322784,38.5764045 L20.1677388,34.3461461 L5.16842268,34.3461461 C2.33308247,34.3461461 0,32.1105843 0,29.3079888 L0,17.4702472 C0,14.6675056 2.33308247,12.3778989 5.16842268,12.3778989 L16.3131065,12.3778989 L16.3131065,5.27873034 C16.3131065,2.47613483 18.6642165,0.224651685 21.4994089,0.224651685 L37.8027629,0.224651685 C40.6381031,0.224651685 42.9110447,2.47613483 42.9110447,5.27873034 Z M40.7835052,5.27873034 C40.7835052,3.63605618 39.464543,2.32831461 37.8027629,2.32831461 L21.4994089,2.32831461 C19.8370378,2.32831461 18.4413849,3.63605618 18.4413849,5.27873034 L18.4413849,23.2473596 L20.5804502,21.3365056 C20.6791581,21.2468202 20.7905739,21.1653146 20.8714021,21.0911124 C21.8479897,20.2015618 22.0980103,20.0594382 23.3719038,20.0851461 C23.545677,20.0886517 23.7528454,20.0902584 24.0050825,20.0902584 L37.8027629,20.0902584 C39.464543,20.0902584 40.7835052,18.7591461 40.7835052,17.1164719 L40.7835052,5.27873034 Z"
    id="Fill-1" fill="#242D3C"></path>
</svg>
