<svg id="ec5c89df-b275-4d62-957c-639fa3b6b0cf" data-name="Livello 1" xmlns="http://www.w3.org/2000/svg" viewBox="0 0 130 130"><defs><style>.\36 bbb3a0c-b99e-445b-86df-c499c134bdbe,.d7e92cec-6431-4ed5-aa4b-00e35d8ae33c{fill:none;stroke:#242d3c;stroke-width:3px;}.\36 bbb3a0c-b99e-445b-86df-c499c134bdbe{stroke-linejoin:round;}.d7e92cec-6431-4ed5-aa4b-00e35d8ae33c{stroke-miterlimit:10;}</style></defs><title>My-Camper</title><g id="8332cd7f-4964-45c8-bf2b-33249dab7dbe" data-name="Fair and local"><path class="6bbb3a0c-b99e-445b-86df-c499c134bdbe" d="M87.5,32C87.5,44.43,65,73.5,65,73.5S42.5,44.43,42.5,32A22.5,22.5,0,0,1,87.5,32Z"/><circle class="d7e92cec-6431-4ed5-aa4b-00e35d8ae33c" cx="65" cy="32" r="8.5"/><path class="6bbb3a0c-b99e-445b-86df-c499c134bdbe" d="M49.36,50.2L47.82,50,42.17,56.5H33l-3.5,2.58c0.11,2,.22,3.81.33,5.83-3.72,3.89-7.44,7.65-11.17,11.54-0.39,2.56-.78,5-1.17,7.6-2.14,1.48-3.82,2.8-5,3.8-2.29,1.95-2.82,2.67-3.17,3.32a8.53,8.53,0,0,0-.83,5.16L3.67,101.5,7,107l5.5-2.34v-4l10.17-4.83,5.42,2.67L27.38,103l7.23,15L50,114.67,55.32,118l9.34-9.33-2-6.67,6-6c0.47,1,3.53,10.57,4.09,11.33,1.05,1.44,3.13,2.44,7.75,3.67l0.5,3c0.72,1.61,5.25,5.72,5.25,5.72a24.19,24.19,0,0,1,1-2.62c0.35-.78.72-1.49,1.08-2.12a5.24,5.24,0,0,0-1.17-4c1.3-.92,5.52-4.63,7.29-8.29a35.2,35.2,0,0,0,1-7.71c1.06-.33,1.11-0.67,2.17-1l1.95,6.43,5.89,1.82L110,98.67l1.75,6.33c1.83-.06,3.75-0.11,4.75-0.17V96L114,94.5,115.33,90l3.48-1.46,2.93,4,4.59-1.33a7.16,7.16,0,0,0-2.46-6.79L126.37,75l-2.68-2.69c-1.18,1-2.43,2.06-3.77,3.1-1.51,1.18-3,2.26-4.42,3.25A29.43,29.43,0,0,1,101,63.25c0.75-2.83.83-4.5,1.58-7.33-5-2.79-9.33-5.42-14.33-8.42H82"/></g></svg>