<?xml version="1.0" encoding="UTF-8"?>
<svg width="12px" height="22px" viewBox="0 0 12 22" version="1.1" xmlns="http://www.w3.org/2000/svg" xmlns:xlink="http://www.w3.org/1999/xlink">
    <!-- Generator: Sketch 51.2 (57519) - http://www.bohemiancoding.com/sketch -->
    <title>flash</title>
    <desc>Created with Sketch.</desc>
    <defs></defs>
    <g id="01_Desktop" stroke="none" stroke-width="1" fill="none" fill-rule="evenodd">
        <g id="10_Mieten_Übersicht" transform="translate(-862.000000, -931.000000)" fill="#F1D024">
            <g id="flash" transform="translate(862.000000, 931.000000)">
                <path d="M1.88122055,21.5020027 C1.82524762,21.5020027 1.76847508,21.4900085 1.71889905,21.4588235 C1.58776247,21.3804614 1.52859109,21.2181399 1.58136557,21.0742095 L4.92055073,11.8882519 L0.881703923,10.7360091 C0.778553806,10.707223 0.697792863,10.6264621 0.66340949,10.523312 C0.632224572,10.4201619 0.657012584,10.3050175 0.725779328,10.223457 L8.91861726,0.490563836 C9.01537047,0.37541952 9.18089042,0.346633441 9.312027,0.415400185 C9.44636204,0.487365382 9.51193033,0.640891137 9.4679516,0.787220372 L7.10669351,8.9800583 L11.1671299,10.1362991 C11.2734784,10.1674841 11.355039,10.248245 11.3862239,10.3513951 C11.4174088,10.4577437 11.3958193,10.5704892 11.3238541,10.6544486 L2.12510261,21.3900568 C2.06273278,21.4652205 1.97157686,21.5020027 1.88122055,21.5020027 Z" id="Fill-1"></path>
            </g>
        </g>
    </g>
</svg>