<svg id="e84cf52c-3eab-4b07-b7de-c221b9b3d42f" data-name="Livello 1" xmlns="http://www.w3.org/2000/svg" viewBox="0 0 130 130"><defs><style>.\35 e011d06-c301-4238-97ca-ccf625c317c1,.\36 017f96f-b3e2-4721-acef-f70a6450e66a,.b3e84577-a272-4728-92a3-e1dacd2d891d,.ea067e93-9a41-485d-83f1-e3bf6a01c2c1{fill:none;stroke:#242d3c;stroke-width:3px;}.\35 e011d06-c301-4238-97ca-ccf625c317c1,.\36 017f96f-b3e2-4721-acef-f70a6450e66a{stroke-miterlimit:10;}.\35 e011d06-c301-4238-97ca-ccf625c317c1,.ea067e93-9a41-485d-83f1-e3bf6a01c2c1{stroke-linecap:round;}.b3e84577-a272-4728-92a3-e1dacd2d891d,.ea067e93-9a41-485d-83f1-e3bf6a01c2c1{stroke-linejoin:round;}</style></defs><title>My-Camper</title><g id="7bfa199c-0025-47bb-a332-db6f9d4fcc3f" data-name="Handover Colored"><g id="da8267c2-3afd-4a9c-8fe6-63f0ec8e71d9" data-name="earnings outlined"><path class="6017f96f-b3e2-4721-acef-f70a6450e66a" d="M4.52,74.86H16a0.93,0.93,0,0,1,.93.93v27.89a0.65,0.65,0,0,1-.65.65H4.52V74.86Z"/></g><g id="0f90b349-3656-4f2d-aae5-7e74503a076a" data-name="Key"><circle class="ea067e93-9a41-485d-83f1-e3bf6a01c2c1" cx="67.08" cy="41.94" r="4.5"/></g><circle class="ea067e93-9a41-485d-83f1-e3bf6a01c2c1" cx="101.67" cy="54.84" r="4.5" transform="translate(-9 87.95) rotate(-45)"/><path class="5e011d06-c301-4238-97ca-ccf625c317c1" d="M39,79.14H49.28c0.2-.07.48-0.16,0.83-0.31a9.68,9.68,0,0,0,3.93-3,9.47,9.47,0,0,0,2-5.54,0.13,0.13,0,0,0-.13-0.13H37.25a11.15,11.15,0,0,0-7.64,3l-6.49,6.14h-5"/><path class="5e011d06-c301-4238-97ca-ccf625c317c1" d="M17.49,99H31.21a20.71,20.71,0,0,0,7.23-1.32c8-3,27.09-10.24,30.77-11.81L89,70.15a1.48,1.48,0,0,0,.52-1.06c-0.06-1.46-3.55-2.66-6-2.79a13.91,13.91,0,0,0-7.65,2.29,12.24,12.24,0,0,0-2.1,1.56L60,79l-0.74,0c-2.21,0-7.08.1-9.16,0.16H49.87"/><path class="6017f96f-b3e2-4721-acef-f70a6450e66a" d="M59.28,79l7.15-11.11a9.8,9.8,0,0,1,9.37-4.39l2.27,0.26a0.38,0.38,0,0,1,.34.58l-2.59,4.17"/><path class="ea067e93-9a41-485d-83f1-e3bf6a01c2c1" d="M27.41,36.86H50.1a15,15,0,0,1,14-10,15.21,15.21,0,0,1,15,15.42v0.08a15.22,15.22,0,0,1-15,15.34,15,15,0,0,1-14-10H41.72L39.34,45,36,48.24,32.68,45,30,47.73H27.41A5.44,5.44,0,0,1,27.41,36.86Z"/><polygon class="ea067e93-9a41-485d-83f1-e3bf6a01c2c1" points="96.01 42.82 89.64 49.19 90.35 59.79 108.74 78.18 125 61.91 106.62 43.53 96.01 42.82"/><line class="5e011d06-c301-4238-97ca-ccf625c317c1" x1="107.16" y1="68.39" x2="114.94" y2="60.61"/><path class="b3e84577-a272-4728-92a3-e1dacd2d891d" d="M78.72,42.5l0.41-.13A13.52,13.52,0,0,1,86,42a14.37,14.37,0,0,1,6.77,3.5"/></g></svg>