<svg id="cec4d796-0b10-4bd6-832a-b2392de458db" data-name="Livello 1" xmlns="http://www.w3.org/2000/svg" viewBox="0 0 130 130"><defs><style>.\32 3fecd36-c224-44ee-b670-c7c46434062b{fill:#fff;}.d38d1e91-8841-449d-89d1-aae5a78af296{fill:#2ab2b8;}.\38 35b764f-9a00-45b9-9c56-dc3cbde2e34a{fill:#f15424;}.a25e4c2e-4223-4f58-8c2b-f2ac63fdd0d8{fill:#57c5d0;}.\32 c98e6f1-4e85-4f33-baaa-98d3ae84a0ff,.\33 087ea6e-8d9e-4db7-a526-c2df697c9e66,.\34 053d7c2-b39e-4d48-8880-fc0fba82034c,.cd30c5f9-a149-4bd8-b679-1ae1a825559a{fill:none;stroke:#242d3c;stroke-miterlimit:10;stroke-width:3px;}.\32 c98e6f1-4e85-4f33-baaa-98d3ae84a0ff{stroke-linecap:round;}.\33 087ea6e-8d9e-4db7-a526-c2df697c9e66{stroke-dasharray:3 3;}.\34 053d7c2-b39e-4d48-8880-fc0fba82034c{stroke-dasharray:3;}</style></defs><title>My-Camper</title><g id="415fac3e-912d-4e06-9ffe-fa2d6dbaeb1f" data-name="MyCamper Experience Colored"><circle class="23fecd36-c224-44ee-b670-c7c46434062b" cx="28" cy="83" r="4.5"/><path class="d38d1e91-8841-449d-89d1-aae5a78af296" d="M93.13,74.54A7.49,7.49,0,0,1,88,87.5a7.78,7.78,0,0,1-1.5-.15,7.49,7.49,0,0,1-3.64-12.8,1,1,0,0,0,.2-1.14A5.44,5.44,0,0,1,82.5,71a5.5,5.5,0,0,1,11-.76,5.56,5.56,0,0,1-.51,3.18A1,1,0,0,0,93.13,74.54Z"/><path class="d38d1e91-8841-449d-89d1-aae5a78af296" d="M74.35,74.54a7.5,7.5,0,0,1-5.14,13,7.78,7.78,0,0,1-1.5-.15,7.49,7.49,0,0,1-3.63-12.8,1,1,0,0,0,.19-1.14A5.44,5.44,0,0,1,63.71,71a5.5,5.5,0,0,1,10.95-.76,5.4,5.4,0,0,1-.51,3.18A1,1,0,0,0,74.35,74.54Z"/><path class="835b764f-9a00-45b9-9c56-dc3cbde2e34a" d="M28,70.5A12.5,12.5,0,0,1,40.5,83c0,6.9-12.5,23.5-12.5,23.5S15.5,89.9,15.5,83A12.5,12.5,0,0,1,28,70.5ZM32.5,83A4.5,4.5,0,1,0,28,87.5,4.49,4.49,0,0,0,32.5,83Z"/><polygon class="a25e4c2e-4223-4f58-8c2b-f2ac63fdd0d8" points="43.38 30.71 61.96 49.5 16.96 49.5 25.96 39 31.46 42.25 43.38 30.71"/><path class="23fecd36-c224-44ee-b670-c7c46434062b" d="M88,87.5a7.49,7.49,0,0,0,5.13-13,1,1,0,0,1-.19-1.12,5.49,5.49,0,0,0-4.3-7.88A5.5,5.5,0,0,0,82.5,71a5.44,5.44,0,0,0,.56,2.41,1,1,0,0,1-.2,1.14,7.49,7.49,0,0,0,3.64,12.8A7.78,7.78,0,0,0,88,87.5Zm-18.79,0a7.5,7.5,0,0,0,5.14-13,1,1,0,0,1-.2-1.12,5.4,5.4,0,0,0,.51-3.18A5.5,5.5,0,0,0,63.71,71a5.44,5.44,0,0,0,.56,2.41,1,1,0,0,1-.19,1.14,7.49,7.49,0,0,0,3.63,12.8A7.78,7.78,0,0,0,69.21,87.5Zm54.29-81v110l-35.87,9-43.33-9-37.8,8V15.5l38.8-10,41,10ZM62,49.5L43.38,30.71,31.46,42.25,26,39,17,49.5H62ZM40.5,83a12.5,12.5,0,0,0-25,0c0,6.9,12.5,23.5,12.5,23.5S40.5,89.9,40.5,83Z"/><polygon class="2c98e6f1-4e85-4f33-baaa-98d3ae84a0ff" points="16.96 49.5 25.96 39 31.46 42.25 43.38 30.71 61.96 49.5 16.96 49.5"/><polygon class="2c98e6f1-4e85-4f33-baaa-98d3ae84a0ff" points="123.5 116.5 87.63 125.5 44.3 116.5 6.5 124.5 6.5 15.5 45.3 5.5 86.3 15.5 123.5 6.5 123.5 116.5"/><path class="3087ea6e-8d9e-4db7-a526-c2df697c9e66" d="M34.46,31.08c5.27-6,10-7.62,13.25-8.08C66.55,20.3,81.29,51.11,97,46.75A14.42,14.42,0,0,0,104,42"/><path class="4053d7c2-b39e-4d48-8880-fc0fba82034c" d="M37.71,104.75c10,1.66,18.54,2.64,25.25,3.25,32,2.91,39.19-1,43-4.25,1.49-1.26,6.68-5.65,7-12.25,0.34-6.79-4.59-13.6-12.5-17.75"/><path class="4053d7c2-b39e-4d48-8880-fc0fba82034c" d="M57,65.5A30.18,30.18,0,0,1,33.21,55.25"/><path class="cd30c5f9-a149-4bd8-b679-1ae1a825559a" d="M40.5,83c0,6.9-12.5,23.5-12.5,23.5S15.5,89.9,15.5,83A12.5,12.5,0,0,1,40.5,83Z"/><path class="cd30c5f9-a149-4bd8-b679-1ae1a825559a" d="M92.94,73.42a5.49,5.49,0,0,0-4.3-7.88A5.5,5.5,0,0,0,82.5,71a5.44,5.44,0,0,0,.56,2.41,1,1,0,0,1-.2,1.14,7.49,7.49,0,0,0,3.64,12.8,7.78,7.78,0,0,0,1.5.15,7.49,7.49,0,0,0,5.13-13A1,1,0,0,1,92.94,73.42Z"/><line class="cd30c5f9-a149-4bd8-b679-1ae1a825559a" x1="88" y1="95.5" x2="88" y2="87.5"/><polyline class="cd30c5f9-a149-4bd8-b679-1ae1a825559a" points="101.99 22.97 107.65 28.63 113.31 34.28"/><polyline class="cd30c5f9-a149-4bd8-b679-1ae1a825559a" points="101.96 34.31 107.65 28.63 113.28 23"/><path class="cd30c5f9-a149-4bd8-b679-1ae1a825559a" d="M74.15,73.42a5.4,5.4,0,0,0,.51-3.18A5.5,5.5,0,0,0,63.71,71a5.44,5.44,0,0,0,.56,2.41,1,1,0,0,1-.19,1.14,7.49,7.49,0,0,0,3.63,12.8,7.78,7.78,0,0,0,1.5.15,7.5,7.5,0,0,0,5.14-13A1,1,0,0,1,74.15,73.42Z"/><line class="cd30c5f9-a149-4bd8-b679-1ae1a825559a" x1="69.21" y1="95.5" x2="69.21" y2="87.5"/></g></svg>