<svg id="f3f9445e-b771-43f7-92ca-8ce3d7757388" data-name="Livello 1" xmlns="http://www.w3.org/2000/svg" viewBox="0 0 130 130"><defs><style>.\35 e2dd0ff-a485-49d4-95b6-cd3c4436388c{fill:#2ab2b8;}.\38 57ef0a6-44e0-428f-b155-315d33cda9a4{fill:#fff;}.\36 7614092-c0d6-4de3-9755-48523732e2e7,.\36 bce51c7-a889-4729-9d90-4bb2f6f94f80,.\39 064d0ab-d154-4570-a087-04ab3f5c64d0,.bc838483-9f2d-4b41-9b29-c46d9d6850d1{fill:none;stroke-miterlimit:10;}.\36 bce51c7-a889-4729-9d90-4bb2f6f94f80,.\39 064d0ab-d154-4570-a087-04ab3f5c64d0{stroke:#242d3c;}.\39 064d0ab-d154-4570-a087-04ab3f5c64d0{stroke-linecap:round;}.\36 bce51c7-a889-4729-9d90-4bb2f6f94f80,.\39 064d0ab-d154-4570-a087-04ab3f5c64d0,.bc838483-9f2d-4b41-9b29-c46d9d6850d1{stroke-width:3px;}.a7a3a2f1-01a1-4d44-95f8-fa5a28685a1b{fill:#f15424;}.\36 7614092-c0d6-4de3-9755-48523732e2e7,.bc838483-9f2d-4b41-9b29-c46d9d6850d1{stroke:#fff;}.\36 7614092-c0d6-4de3-9755-48523732e2e7{stroke-width:2px;}</style></defs><title>My-Camper</title><g id="e85e91c8-484e-4af3-adb3-e748ce592c50" data-name="Renting Out Colored"><path class="5e2dd0ff-a485-49d4-95b6-cd3c4436388c" d="M30.13,123.62v3.32a0.65,0.65,0,0,1-.65.65H17.76V98.13H29.2a0.93,0.93,0,0,1,.93.92v24.57Z"/><path class="857ef0a6-44e0-428f-b155-315d33cda9a4" d="M91.31,87a0.38,0.38,0,0,1,.34.58l-2.59,4.17,0.07,0.11A12.24,12.24,0,0,0,87,93.42l-13.77,8.8-0.74,0,7.15-11.11A9.8,9.8,0,0,1,89,86.74Z"/><path class="857ef0a6-44e0-428f-b155-315d33cda9a4" d="M62.52,102.41h0.84c2.08-.06,7-0.11,9.16-0.16l0.74,0L87,93.42a12.24,12.24,0,0,1,2.1-1.56,13.91,13.91,0,0,1,7.65-2.29c2.43,0.13,5.92,1.33,6,2.79a1.48,1.48,0,0,1-.52,1.06L82.45,109.1c-3.68,1.57-22.81,8.8-30.77,11.81a20.71,20.71,0,0,1-7.23,1.32H30.13V102.58h6.23l6.49-6.14a11.15,11.15,0,0,1,7.64-3H69.1a0.13,0.13,0,0,1,.13.13,9.47,9.47,0,0,1-2,5.54,9.68,9.68,0,0,1-3.93,3C63,102.25,62.72,102.34,62.52,102.41Z"/><path class="9064d0ab-d154-4570-a087-04ab3f5c64d0" d="M52.24,102.41H62.52c0.2-.07.48-0.16,0.83-0.31a9.68,9.68,0,0,0,3.93-3,9.47,9.47,0,0,0,2-5.54,0.13,0.13,0,0,0-.13-0.13H50.49a11.15,11.15,0,0,0-7.64,3l-6.49,6.14h-5"/><path class="9064d0ab-d154-4570-a087-04ab3f5c64d0" d="M30.73,122.24H44.45a20.71,20.71,0,0,0,7.23-1.32c8-3,27.09-10.24,30.77-11.81l19.79-15.68a1.48,1.48,0,0,0,.52-1.06c-0.06-1.46-3.55-2.66-6-2.79a13.91,13.91,0,0,0-7.65,2.29A12.24,12.24,0,0,0,87,93.42l-13.77,8.8-0.74,0c-2.21.05-7.08,0.1-9.16,0.16H63.11"/><path class="6bce51c7-a889-4729-9d90-4bb2f6f94f80" d="M72.52,102.24l7.15-11.11A9.8,9.8,0,0,1,89,86.74L91.31,87a0.38,0.38,0,0,1,.34.58l-2.59,4.17"/><path class="6bce51c7-a889-4729-9d90-4bb2f6f94f80" d="M17.76,98.13H29.2a0.93,0.93,0,0,1,.93.92v27.89a0.65,0.65,0,0,1-.65.65H17.76"/><circle class="a7a3a2f1-01a1-4d44-95f8-fa5a28685a1b" cx="66.68" cy="17.17" r="14.5"/><circle class="6bce51c7-a889-4729-9d90-4bb2f6f94f80" cx="66.68" cy="17.17" r="14.5"/><path class="bc838483-9f2d-4b41-9b29-c46d9d6850d1" d="M70,13.55a2.58,2.58,0,0,0-.52-0.78,3.88,3.88,0,0,0-2.8-1.1c-1.93,0-3.5,1.23-3.5,2.75s1.57,2.74,3.5,2.74,3.5,1.23,3.5,2.75-1.57,2.75-3.5,2.75a4,4,0,0,1-2.44-.78A2.87,2.87,0,0,1,63.48,21"/><line class="67614092-c0d6-4de3-9755-48523732e2e7" x1="66.68" y1="8.17" x2="66.68" y2="11.17"/><line class="67614092-c0d6-4de3-9755-48523732e2e7" x1="66.68" y1="23.17" x2="66.68" y2="25.97"/><circle class="a7a3a2f1-01a1-4d44-95f8-fa5a28685a1b" cx="65.68" cy="69.17" r="14.5"/><circle class="6bce51c7-a889-4729-9d90-4bb2f6f94f80" cx="65.68" cy="69.17" r="14.5"/><path class="bc838483-9f2d-4b41-9b29-c46d9d6850d1" d="M69,65.55a2.58,2.58,0,0,0-.52-0.78,3.88,3.88,0,0,0-2.8-1.1c-1.93,0-3.5,1.23-3.5,2.75s1.57,2.74,3.5,2.74,3.5,1.23,3.5,2.75-1.57,2.75-3.5,2.75a4,4,0,0,1-2.44-.78A2.87,2.87,0,0,1,62.48,73"/><line class="67614092-c0d6-4de3-9755-48523732e2e7" x1="65.68" y1="60.17" x2="65.68" y2="63.17"/><line class="67614092-c0d6-4de3-9755-48523732e2e7" x1="65.68" y1="75.17" x2="65.68" y2="77.97"/><circle class="a7a3a2f1-01a1-4d44-95f8-fa5a28685a1b" cx="95.68" cy="43.17" r="14.5"/><circle class="6bce51c7-a889-4729-9d90-4bb2f6f94f80" cx="95.68" cy="43.17" r="14.5"/><path class="bc838483-9f2d-4b41-9b29-c46d9d6850d1" d="M99,39.55a2.58,2.58,0,0,0-.52-0.78,3.88,3.88,0,0,0-2.8-1.1c-1.93,0-3.5,1.23-3.5,2.75s1.57,2.74,3.5,2.74,3.5,1.23,3.5,2.75-1.57,2.75-3.5,2.75a4,4,0,0,1-2.44-.78A2.87,2.87,0,0,1,92.48,47"/><line class="67614092-c0d6-4de3-9755-48523732e2e7" x1="95.68" y1="34.17" x2="95.68" y2="37.17"/><line class="67614092-c0d6-4de3-9755-48523732e2e7" x1="95.68" y1="49.17" x2="95.68" y2="51.97"/></g></svg>