<?xml version="1.0" encoding="UTF-8"?>
<svg width="9px" height="19px" viewBox="0 0 9 19" version="1.1" xmlns="http://www.w3.org/2000/svg" xmlns:xlink="http://www.w3.org/1999/xlink">
    <!-- Generator: Sketch 51.2 (57519) - http://www.bohemiancoding.com/sketch -->
    <title>001-social-media-1</title>
    <desc>Created with Sketch.</desc>
    <defs></defs>
    <g id="Symbols" stroke="none" stroke-width="1" fill="none" fill-rule="evenodd">
        <g id="Footer" transform="translate(-956.000000, -332.000000)" fill="#FFFFFF" fill-rule="nonzero">
            <g id="Group-10" transform="translate(956.000000, 332.000000)">
                <g id="001-social-media-1">
                    <path d="M5.83498261,6.22563553 L5.83498261,4.58852397 C5.83498261,4.34276138 5.84618051,4.15240239 5.86893623,4.01793157 C5.89161196,3.88325884 5.94320226,3.7508071 6.0232672,3.62005139 C6.10321217,3.48937644 6.23266782,3.39916389 6.4114342,3.34917143 C6.59044053,3.29909821 6.8283158,3.27414237 7.12529994,3.27414237 L8.74655503,3.27414237 L8.74655503,0 L6.15468249,0 C4.65496454,0 3.57784711,0.359275341 2.92317024,1.07782602 C2.26857335,1.79653823 1.9413149,2.85518298 1.9413149,4.25416409 L1.9413149,6.22559515 L0,6.22559515 L0,9.49997981 L1.94119492,9.49997981 L1.94119492,19 L5.83494262,19 L5.83494262,9.50002019 L8.4266552,9.50002019 L8.76923077,6.22563553 L5.83498261,6.22563553 Z" id="Shape"></path>
                </g>
            </g>
        </g>
    </g>
</svg>