<?xml version="1.0" encoding="UTF-8"?>
<svg width="46px" height="38px" viewBox="0 0 46 38" version="1.1" xmlns="http://www.w3.org/2000/svg"
     xmlns:xlink="http://www.w3.org/1999/xlink">
  <!-- Generator: Sketch 51.1 (57501) - http://www.bohemiancoding.com/sketch -->
  <title>001-transport-1</title>
  <desc>Created with Sketch.</desc>
  <defs></defs>
  <g id="Symbols" stroke="none" stroke-width="1" fill="none" fill-rule="evenodd">
    <g id="SicherUnterwegs" transform="translate(-31.000000, -236.000000)" fill="#242D3C">
      <g id="Group-18">
        <path
          d="M40.4226282,262.734326 C40.4226282,263.319938 39.9475897,263.794643 39.3612372,263.794643 L33.9556474,263.794643 C33.3692949,263.794643 32.8936667,263.319938 32.8936667,262.734326 C32.8936667,262.148566 33.3692949,261.67386 33.9556474,261.67386 L39.3612372,261.67386 C39.9475897,261.67386 40.4226282,262.148566 40.4226282,262.734326 Z M40.7008397,257.736884 C40.6392115,257.747783 40.5769936,257.752938 40.5147756,257.752938 C40.4525577,257.752938 40.3903397,257.747783 40.3287115,257.736884 C37.7521218,257.278822 35.3919679,255.918186 33.6831859,253.90507 C31.9531731,251.86662 31,249.27938 31,246.620116 L31,240.096341 C31,239.224109 31.5562756,238.002659 34.2073205,237.136907 C35.9079936,236.581636 38.1476923,236.275574 40.5147756,236.275574 C42.881859,236.275574 45.1215577,236.581636 46.821641,237.136907 C49.4732756,238.002659 50.0295513,239.224109 50.0295513,240.096341 C50.0295513,240.103264 50.0295513,240.109597 50.0295513,240.11593 L50.0295513,246.619527 C50.0295513,249.27938 49.0763782,251.866031 47.3463654,253.904481 C45.6375833,255.918186 43.2774295,257.278822 40.7008397,257.736884 Z M47.9061795,246.620116 L47.9061795,240.118287 C47.6959359,239.61707 45.2384744,238.396798 40.5147756,238.396798 C35.7898974,238.396798 33.3324359,239.617659 33.1227821,240.118287 L33.1227821,246.620116 C33.1227821,251.008233 36.2201154,254.760659 40.5147756,255.613891 C44.8094359,254.760659 47.9061795,251.008233 47.9061795,246.620116 Z M39.3612372,265.482698 L36.9434359,265.482698 C36.3572308,265.482698 35.8820449,265.957256 35.8820449,266.543016 C35.8820449,267.128628 36.3572308,267.603333 36.9434359,267.603333 L39.3612372,267.603333 C39.9475897,267.603333 40.4226282,267.128628 40.4226282,266.543016 C40.4226282,265.957256 39.9475897,265.482698 39.3612372,265.482698 Z M62.4920128,268.997403 C62.4920128,269.583163 62.0168269,270.057721 61.4304744,270.057721 L55.3015641,270.057721 C54.8138462,272.309 52.8044423,274 50.4068397,274 C47.9487885,274 45.8985449,272.22107 45.4780577,269.884512 C44.6275,269.615271 43.926,269.04807 43.5487115,268.291457 C43.3598462,267.911752 43.2648974,267.509512 43.2648974,267.094752 L43.2648974,260.023217 C43.2648974,259.437605 43.7399359,258.962899 44.3262885,258.962899 C44.9124936,258.962899 45.3876795,259.437605 45.3876795,260.023217 L45.3876795,267.094752 C45.3876795,267.179884 45.4084679,267.264426 45.4498974,267.347349 C45.4855769,267.419814 45.5390962,267.492868 45.6094231,267.561946 C46.2285064,265.501109 48.1451731,263.995395 50.4068397,263.995395 C52.8044423,263.995395 54.8132564,265.686395 55.3015641,267.937085 L61.4304744,267.937085 C62.0168269,267.937085 62.4920128,268.411643 62.4920128,268.997403 Z M53.2915705,268.997403 C53.2915705,267.408915 51.9981154,266.116031 50.4074295,266.116031 C48.8247051,266.116031 47.5352308,267.395659 47.5225513,268.973837 C47.5225513,268.987093 47.5225513,269.000349 47.5225513,269.013457 C47.53125,270.595171 48.8219038,271.879217 50.4074295,271.879217 C51.9975256,271.879217 53.2915705,270.586481 53.2915705,268.997403 Z M76.9643205,264.835372 L76.9607821,265.520698 C76.9591603,265.964767 76.9562115,266.47114 76.9562115,267.094752 C76.9562115,268.362744 76.0434359,269.461062 74.7561731,269.878767 C74.3386346,272.218124 72.2866218,274 69.826359,274 C67.0647372,274 64.8186987,271.756085 64.8186987,268.997403 C64.8186987,266.239163 67.0647372,263.995395 69.826359,263.995395 C72.0850769,263.995395 73.9989423,265.496395 74.6208269,267.552667 C74.7539615,267.418047 74.8334295,267.259271 74.8334295,267.094752 C74.8334295,266.467016 74.835641,265.957256 74.838,265.51024 L74.8408013,264.825651 C74.8449295,263.97993 74.8500897,262.821078 74.838,262.280829 C74.8287115,261.893171 74.818391,261.575473 74.7914103,261.300488 L58.4605256,261.300488 C58.0798462,261.300488 57.1877115,261.300488 54.4573462,258.604992 C53.6256603,257.784016 51.9721667,256.036752 51.6675641,255.300318 C51.4440513,254.758891 51.7014744,254.139256 52.2434487,253.915527 C52.7773141,253.695039 53.3872564,253.941891 53.6193205,254.466085 C53.7638077,254.724426 54.6271923,255.782388 55.8780385,257.025783 C57.4544231,258.591884 58.2917115,259.099287 58.5197949,259.179853 L73.5986538,259.179853 C73.2570449,258.852434 72.8194551,258.465217 72.2566923,257.966946 C71.9641795,257.708605 71.643359,257.424488 71.2908397,257.108558 C71.0340064,256.877907 70.7777628,256.633411 70.5300705,256.396868 C70.169,256.052806 69.7958397,255.696667 69.407641,255.371605 C69.065,255.084543 68.7401987,254.811767 68.4314679,254.551806 C64.4921282,251.237853 63.4329487,250.347209 60.1104808,250.347209 L52.7818846,250.347209 C52.1956795,250.347209 51.7204936,249.872504 51.7204936,249.286891 C51.7204936,248.701132 52.1956795,248.226574 52.7818846,248.226574 L60.1104808,248.226574 C64.2075769,248.226574 65.8444103,249.603264 69.7992308,252.929295 C70.1061923,253.188225 70.4299615,253.459822 70.7708333,253.745705 C71.2125513,254.115101 71.6110705,254.495395 71.9963205,254.863612 C72.2434231,255.098977 72.4766667,255.321527 72.7088782,255.529791 C73.057859,255.842333 73.375141,256.123651 73.6648526,256.379636 C76.2087115,258.631504 76.8928141,259.236705 76.9601923,262.232519 C76.9734615,262.802078 76.9683013,263.929853 76.9643205,264.835372 Z M72.7110897,268.986504 C72.70475,267.403171 71.4129167,266.116031 69.826359,266.116031 C68.2356731,266.116031 66.9414808,267.408915 66.9414808,268.997403 C66.9414808,270.586481 68.2356731,271.879217 69.826359,271.879217 C71.4158654,271.879217 72.7093205,270.587659 72.7110897,268.99976 L72.7110897,268.986504 Z M69.8275385,267.937085 L69.8251795,267.937085 C69.2388269,267.937085 68.7649679,268.411643 68.7649679,268.997403 C68.7649679,269.583163 69.2411859,270.05831 69.8279808,270.05831 C70.4143333,270.05831 70.8895192,269.583163 70.8895192,268.997403 C70.8895192,268.411643 70.4137436,267.937085 69.8275385,267.937085 Z M48.604141,260.240171 C48.604141,260.82593 49.0793269,261.300488 49.6656795,261.300488 L50.8600577,261.300488 C51.4464103,261.300488 51.9214487,260.82593 51.9214487,260.240171 C51.9214487,259.654411 51.4464103,259.179853 50.8600577,259.179853 L49.6656795,259.179853 C49.0799167,259.179853 48.604141,259.654411 48.604141,260.240171 Z M50.408609,267.937085 L50.4050705,267.937085 C49.8188654,267.937085 49.3454487,268.411643 49.3454487,268.997403 C49.3454487,269.583163 49.8222564,270.05831 50.408609,270.05831 C50.9948141,270.05831 51.47,269.583163 51.47,268.997403 C51.47,268.411643 50.9948141,267.937085 50.408609,267.937085 Z"
          id="001-transport-1"></path>
      </g>
    </g>
  </g>
</svg>
