<?xml version="1.0" encoding="UTF-8"?>
<svg viewBox="0 0 22 24" version="1.1" xmlns="http://www.w3.org/2000/svg" xmlns:xlink="http://www.w3.org/1999/xlink">
    <!-- Generator: Sketch 51.1 (57501) - http://www.bohemiancoding.com/sketch -->
    <title>beds</title>
    <desc>Created with Sketch.</desc>
    <defs></defs>
    <g id="01_Desktop" stroke="none" stroke-width="1" fill="none" fill-rule="evenodd">
        <g id="20_Mieten_Detail" transform="translate(-420.000000, -837.000000)" fill="#242D3C">
            <g id="beds" transform="translate(420.000000, 837.000000)">
                <path d="M1.5713251,14.4242759 L20.4271358,14.4242759 L20.4271358,11.2324598 C20.4271358,10.3546667 19.7200576,9.63650575 18.8558107,9.63650575 L3.14265021,9.63650575 C2.27840329,9.63650575 1.5713251,10.3546667 1.5713251,11.2324598 L1.5713251,14.4242759 Z M21.2127984,16.0202299 L0.785662551,16.0202299 C0.314246914,16.0202299 0,15.7010575 0,15.2222529 L0,11.2324598 C0,9.47687356 1.41415638,8.04055172 3.14265021,8.04055172 L18.8558107,8.04055172 C20.5843045,8.04055172 21.9984609,9.47687356 21.9984609,11.2324598 L21.9984609,15.2222529 C21.9984609,15.7010575 21.684214,16.0202299 21.2127984,16.0202299 Z" id="Fill-5"></path>
                <path d="M3.92831276,19.2121379 L18.0701481,19.2121379 C18.5415638,19.2121379 18.8558107,19.5313103 18.8558107,20.0101149 L18.8558107,22.404046 L20.4271358,22.404046 L20.4271358,16.0202299 L1.5713251,16.0202299 L1.5713251,22.404046 L3.14265021,22.404046 L3.14265021,20.0101149 C3.14265021,19.5313103 3.53548148,19.2121379 3.92831276,19.2121379 Z M20.4271358,24 L18.8558107,24 C17.9915638,24 17.2844856,23.2818391 17.2844856,22.404046 L17.2844856,20.808092 L4.71397531,20.808092 L4.71397531,22.404046 C4.71397531,23.2818391 4.00689712,24 3.14265021,24 L1.5713251,24 C0.707078189,24 0,23.2818391 0,22.404046 L0,15.2222529 C0,14.7435402 0.314246914,14.4242759 0.785662551,14.4242759 L21.2127984,14.4242759 C21.684214,14.4242759 21.9984609,14.7435402 21.9984609,15.2222529 L21.9984609,22.404046 C21.9984609,23.2818391 21.2913827,24 20.4271358,24 Z" id="Fill-6"></path>
                <path d="M3.92831276,8.04055172 L18.0701481,8.04055172 L18.0701481,3.89103448 C18.0701481,2.61434483 17.1274074,1.65673563 15.8703292,1.65673563 L6.12813169,1.65673563 C4.8710535,1.65673563 3.92831276,2.61434483 3.92831276,3.89103448 L3.92831276,8.04055172 Z M18.8558107,9.63650575 L3.14265021,9.63650575 C2.67123457,9.63650575 2.35698765,9.31724138 2.35698765,8.83852874 L2.35698765,3.89103448 C2.35698765,1.73655172 4.00689712,0.0607816092 6.12813169,0.0607816092 L15.9489136,0.0607816092 C17.9915638,0.0607816092 19.6414733,1.73655172 19.6414733,3.89103448 L19.6414733,8.83852874 C19.6414733,9.31724138 19.3272263,9.63650575 18.8558107,9.63650575 Z" id="Fill-7"></path>
                <path d="M6.36388477,8.04055172 L15.6346667,8.04055172 C15.2418354,6.20514943 13.6705103,4.84864368 11.7848477,4.84864368 L10.2136132,4.84864368 C8.32795062,4.84864368 6.75671605,6.20514943 6.36388477,8.04055172 Z M16.498823,9.63650575 L5.49963786,9.63650575 C5.02822222,9.63650575 4.71397531,9.31724138 4.71397531,8.83852874 C4.71397531,5.72643678 7.14945679,3.25268966 10.2136132,3.25268966 L11.7848477,3.25268966 C14.8490041,3.25268966 17.2844856,5.72643678 17.2844856,8.83852874 C17.2844856,9.31724138 16.9702387,9.63650575 16.498823,9.63650575 Z" id="Fill-8"></path>
            </g>
        </g>
    </g>
</svg>
