<svg id="069f9903-13a5-4328-969a-be68bc83ea19" data-name="Livello 1" xmlns="http://www.w3.org/2000/svg" viewBox="0 0 130 130"><defs><style>.duduhfiuehf7esifsefsdjof,.b69f0d4c-b6e0-44e9-81d5-4b1b4b5cab0d,.eeb60453-6270-458d-be05-d4148f4475d7{fill:none;stroke:#242d3c;}.duduhfiuehf7esifsefsdjof,.b69f0d4c-b6e0-44e9-81d5-4b1b4b5cab0d{stroke-linejoin:round;}.eeb60453-6270-458d-be05-d4148f4475d7{stroke-linecap:round;}</style></defs><title>MyCamper</title><g id="01914274-7e76-4c42-897b-8760c1f587c6" data-name="Camping Bus"><line class="duduhfiuehf7esifsefsdjof" x1="89.25" y1="102.5" x2="42.5" y2="102.5"/><path class="duduhfiuehf7esifsefsdjof" d="M8,48h93.67a2,2,0,0,1,1.84,1.22,143.89,143.89,0,0,0,8.74,17.28,143.88,143.88,0,0,0,10.82,15.75,2,2,0,0,1,.43,1.23v17a2,2,0,0,1-2,2h-15"/><circle class="duduhfiuehf7esifsefsdjof" cx="34" cy="103" r="8.5"/><circle class="duduhfiuehf7esifsefsdjof" cx="98" cy="103" r="8.5"/><line class="b69f0d4c-b6e0-44e9-81d5-4b1b4b5cab0d" x1="89.5" y1="47.5" x2="89.5" y2="22"/><polyline class="eeb60453-6270-458d-be05-d4148f4475d7" points="25 102.5 8.5 102.5 8.5 47.75 94.96 18.93"/><polyline class="duduhfiuehf7esifsefsdjof" points="107.49 57.5 89.5 57.5 89.5 73.5 116.42 73.5"/><rect class="duduhfiuehf7esifsefsdjof" x="35.5" y="57.5" width="44" height="16"/></g></svg>
