<svg id="00325b18-5d8a-4b5a-ae9a-34faaf86c0e6" data-name="Livello 1" xmlns="http://www.w3.org/2000/svg" viewBox="0 0 130 130"><defs><style>.\34 2cc3533-ca21-46fb-86af-3678b61e62fd{fill:#242d3c;}.\34 d64770a-bf3e-4687-a5b1-87f140536fa7,.bc693dd9-c3d4-44ff-bfdb-697c9fcbfe67{fill:none;stroke:#242d3c;stroke-miterlimit:10;stroke-width:3px;}.bc693dd9-c3d4-44ff-bfdb-697c9fcbfe67{stroke-linecap:round;}</style></defs><title>My-Camper</title><g id="a51651ca-cfb6-479b-a7b0-d65eaeccd2c3" data-name="Clarify Details And Confirm"><rect class="42cc3533-ca21-46fb-86af-3678b61e62fd" x="21.5" y="24" width="3" height="3"/><rect class="42cc3533-ca21-46fb-86af-3678b61e62fd" x="14.5" y="24" width="3" height="3"/><path class="4d64770a-bf3e-4687-a5b1-87f140536fa7" d="M90.5,103.5H8.5a2,2,0,0,1-2-2v-85h119v85a2,2,0,0,1-2,2h-6"/><line class="bc693dd9-c3d4-44ff-bfdb-697c9fcbfe67" x1="97.5" y1="60.5" x2="108.5" y2="60.5"/><line class="bc693dd9-c3d4-44ff-bfdb-697c9fcbfe67" x1="95.5" y1="68.5" x2="111.5" y2="68.5"/><rect class="4d64770a-bf3e-4687-a5b1-87f140536fa7" x="29.93" y="60.69" width="12" height="7"/><polyline class="4d64770a-bf3e-4687-a5b1-87f140536fa7" points="65.83 80.03 58.71 80.03 48.84 80.03 39.07 80.03"/><path class="4d64770a-bf3e-4687-a5b1-87f140536fa7" d="M38.85,80.08s0,0.07,0,.1a4.28,4.28,0,0,1,.1,1,4.94,4.94,0,0,1-9.87,0,5,5,0,0,1,.1-1,0.83,0.83,0,0,1,0-.15A5,5,0,0,1,38.85,80.08Z"/><polyline class="4d64770a-bf3e-4687-a5b1-87f140536fa7" points="80.96 80.03 80.3 80.03 76.03 80.03 75.75 80.03"/><path class="4d64770a-bf3e-4687-a5b1-87f140536fa7" d="M76.19,60.89L82,69.07,84.7,73a4.59,4.59,0,0,1,.57,2.23,4.91,4.91,0,0,1-5,4.84"/><path class="4d64770a-bf3e-4687-a5b1-87f140536fa7" d="M48.84,79.65V61.42a0.77,0.77,0,0,1,.8-0.73h8.27a0.77,0.77,0,0,1,.8.73V79.65"/><path class="4d64770a-bf3e-4687-a5b1-87f140536fa7" d="M82,69.07H69.26V60.69h9.38a4.84,4.84,0,1,0,0-9.67H23a0.76,0.76,0,0,0-.76.75V79.28A0.76,0.76,0,0,0,23,80h6.76"/><path class="4d64770a-bf3e-4687-a5b1-87f140536fa7" d="M76,80a0.83,0.83,0,0,1,0,.15,5,5,0,0,1,.09,1,4.93,4.93,0,0,1-9.86,0,4.28,4.28,0,0,1,.1-1h0A5,5,0,0,1,76,80Z"/><polyline class="4d64770a-bf3e-4687-a5b1-87f140536fa7" points="6 34.5 6.5 34.5 125.5 34.5"/><line class="bc693dd9-c3d4-44ff-bfdb-697c9fcbfe67" x1="95.5" y1="76.5" x2="111.5" y2="76.5"/><path class="4d64770a-bf3e-4687-a5b1-87f140536fa7" d="M90.51,103.5c0-.17,0-0.33,0-0.5a13.5,13.5,0,0,1,27,0c0,0.17,0,.33,0,0.5A13.5,13.5,0,0,1,90.51,103.5Z"/><polyline class="4d64770a-bf3e-4687-a5b1-87f140536fa7" points="98.87 102.82 102.99 106.07 108.88 98.7"/></g></svg>