<svg id="eea8e201-0d9d-48fa-93d8-ca21ab690a01" data-name="Livello 1" xmlns="http://www.w3.org/2000/svg" viewBox="0 0 130 130"><defs><style>.\39 2896974-418f-4a00-be97-3a0fea23e432{fill:#57c5d0;}.\34 e8ed4b7-bccf-432b-a8d9-c0b953fc8ddb{fill:#f15424;}.d8ee7088-df0f-4314-9d16-08ecb020749b{fill:#fff;}.\30 94f5f4b-2696-48ec-b2fa-f69f6aa0c4b5{fill:none;stroke:#242d3c;stroke-linejoin:round;stroke-width:3px;}</style></defs><title>My-Camper</title><g id="63330396-4f4a-439c-937c-98b12c7d4605" data-name="Fair and local Colored"><path class="92896974-418f-4a00-be97-3a0fea23e432" d="M126.37,75q-1.25,4.68-2.51,9.38a7.12,7.12,0,0,1,2.12,3,7.28,7.28,0,0,1,.35,3.84l-4.59,1.33-2.93-4L115.33,90,114,94.5l2.5,1.5v8.83c-1,.06-2.92.11-4.75,0.17L110,98.67l-4.49,3.58-5.89-1.82-2-6.43c-1.06.33-1.11,0.67-2.17,1a35.82,35.82,0,0,1-1,7.71c-1.78,3.66-6,7.37-7.29,8.29a5.28,5.28,0,0,1,1,1.75,5.19,5.19,0,0,1,.21,2.25c-0.36.63-.73,1.34-1.08,2.12a23.38,23.38,0,0,0-1,2.63S81.72,115.64,81,114l-0.5-3c-4.62-1.23-6.7-2.23-7.75-3.67-0.56-.76-3.62-10.28-4.09-11.33l-6,6,2,6.67L55.32,118,50,114.67,34.6,118l-7.22-15,0.7-4.5-5.41-2.67L12.5,100.67v4L7,107l-3.33-5.5L8.5,96.34a8.57,8.57,0,0,1,.83-5.16c0.35-.65.88-1.37,3.17-3.32,1.18-1,2.86-2.32,5-3.8,0.39-2.55.78-5,1.17-7.6,3.72-3.89,7.44-7.65,11.16-11.54-0.11-2-.22-3.81-0.33-5.84L33,56.5h9.17L47.82,50l1.54,0.24,0,0A226.91,226.91,0,0,0,65,73.5S75.43,60,82.08,47.5h6.17c5,3,9.33,5.62,14.33,8.42-0.75,2.83-.83,4.5-1.58,7.33a29.46,29.46,0,0,0,14.5,15.42c1.43-1,2.91-2.07,4.42-3.25,1.33-1,2.59-2.09,3.76-3.11Z"/><path class="4e8ed4b7-bccf-432b-a8d9-c0b953fc8ddb" d="M82.08,47.5C75.43,60,65,73.5,65,73.5A226.91,226.91,0,0,1,49.39,50.18C45.54,43.39,42.5,36.57,42.5,32a22.5,22.5,0,0,1,45,0C87.5,36,85.21,41.63,82.08,47.5ZM73.5,32A8.5,8.5,0,1,0,65,40.5,8.51,8.51,0,0,0,73.5,32Z"/><circle class="d8ee7088-df0f-4314-9d16-08ecb020749b" cx="65" cy="32" r="8.5"/><path class="094f5f4b-2696-48ec-b2fa-f69f6aa0c4b5" d="M49.39,50.18C45.54,43.39,42.5,36.57,42.5,32a22.5,22.5,0,0,1,45,0c0,4-2.29,9.63-5.42,15.5C75.43,60,65,73.5,65,73.5A226.91,226.91,0,0,1,49.39,50.18Z"/><path class="094f5f4b-2696-48ec-b2fa-f69f6aa0c4b5" d="M49.36,50.2L47.82,50,42.17,56.5H33l-3.5,2.58c0.11,2,.22,3.81.33,5.84-3.72,3.89-7.44,7.65-11.16,11.54-0.39,2.55-.78,5.05-1.17,7.6-2.14,1.48-3.82,2.8-5,3.8-2.29,2-2.82,2.67-3.17,3.32a8.57,8.57,0,0,0-.83,5.16L3.67,101.5,7,107l5.5-2.33v-4l10.17-4.84,5.41,2.67-0.7,4.5,7.22,15L50,114.67,55.32,118l9.34-9.33-2-6.67,6-6c0.47,1,3.53,10.57,4.09,11.33,1,1.44,3.13,2.44,7.75,3.67l0.5,3c0.72,1.61,5.25,5.72,5.25,5.72a23.38,23.38,0,0,1,1-2.63c0.35-.78.72-1.49,1.08-2.12a5.19,5.19,0,0,0-.21-2.25,5.28,5.28,0,0,0-1-1.75c1.3-.92,5.51-4.63,7.29-8.29a35.82,35.82,0,0,0,1-7.71c1.06-.33,1.11-0.67,2.17-1l2,6.43,5.89,1.82L110,98.67l1.75,6.33c1.83-.06,3.75-0.11,4.75-0.17V96L114,94.5,115.33,90l3.48-1.46,2.93,4,4.59-1.33a7.28,7.28,0,0,0-.35-3.84,7.12,7.12,0,0,0-2.12-3q1.26-4.69,2.51-9.38l-2.69-2.69c-1.17,1-2.43,2.06-3.76,3.11-1.51,1.18-3,2.26-4.42,3.25A29.46,29.46,0,0,1,101,63.25c0.75-2.83.83-4.5,1.58-7.33-5-2.8-9.33-5.42-14.33-8.42H82"/></g></svg>