<svg id="1a11e813-532d-4a5d-9735-c9a8e507763e" data-name="Livello 1" xmlns="http://www.w3.org/2000/svg" viewBox="0 0 130 130"><defs><style>.\35 12e87fb-027c-4d46-8ce3-f8515e7a42d5{fill:#fff;}.ca6b6b95-5f7c-4e4e-905e-48d3c45681f4{fill:#2ab2b8;}.b078952a-e5ca-41e4-8ae5-aa6f75280d17{fill:#57c5d0;}.e28ea1cf-d097-463f-8276-8c999897d63a{fill:#f15424;}.\34 068e0c4-aa23-4f7b-b7d3-5cdc2d1ff112,.\37 1073504-a147-4cfc-b01e-3b6744e4650f,.\39 09ce784-4bc3-42fc-8150-7338d2eea51d,.ebd72b25-3e70-494c-a6ee-a0763c2b6811{fill:none;stroke:#242d3c;stroke-width:3px;}.\34 068e0c4-aa23-4f7b-b7d3-5cdc2d1ff112,.\37 1073504-a147-4cfc-b01e-3b6744e4650f{stroke-linecap:round;}.\37 1073504-a147-4cfc-b01e-3b6744e4650f,.ebd72b25-3e70-494c-a6ee-a0763c2b6811{stroke-miterlimit:10;}.\34 068e0c4-aa23-4f7b-b7d3-5cdc2d1ff112,.\39 09ce784-4bc3-42fc-8150-7338d2eea51d{stroke-linejoin:round;}</style></defs><title>My-Camper</title><g id="635f7586-7f83-43c0-bc06-f8df2090c618" data-name="Handover Colored"><path class="512e87fb-027c-4d46-8ce3-f8515e7a42d5" d="M104.85,51.66a4.5,4.5,0,1,1-6.37,0A4.52,4.52,0,0,1,104.85,51.66Z"/><path class="ca6b6b95-5f7c-4e4e-905e-48d3c45681f4" d="M16.89,100.35v3.32a0.65,0.65,0,0,1-.65.65H4.52V74.86H16a0.93,0.93,0,0,1,.93.92v24.57Z"/><path class="512e87fb-027c-4d46-8ce3-f8515e7a42d5" d="M78.07,63.73a0.38,0.38,0,0,1,.34.58l-2.59,4.17,0.07,0.11a12.24,12.24,0,0,0-2.1,1.56L60,79l-0.74,0,7.15-11.11a9.8,9.8,0,0,1,9.37-4.39Z"/><path class="512e87fb-027c-4d46-8ce3-f8515e7a42d5" d="M49.28,79.14h0.84c2.08-.06,7-0.11,9.16-0.16L60,79l13.77-8.8a12.24,12.24,0,0,1,2.1-1.56,13.91,13.91,0,0,1,7.65-2.29c2.43,0.13,5.92,1.33,6,2.79A1.48,1.48,0,0,1,89,70.15L69.21,85.83c-3.68,1.57-22.81,8.8-30.77,11.81A20.71,20.71,0,0,1,31.21,99H16.89V79.31h6.23l6.49-6.14a11.15,11.15,0,0,1,7.64-3H55.86a0.13,0.13,0,0,1,.13.13,9.47,9.47,0,0,1-2,5.54,9.68,9.68,0,0,1-3.93,3C49.76,79,49.48,79.07,49.28,79.14Z"/><path class="b078952a-e5ca-41e4-8ae5-aa6f75280d17" d="M125,61.91L108.74,78.18,90.35,59.79l-0.71-10.6L96,42.82l10.61,0.71ZM104.85,58a4.5,4.5,0,1,0-6.37,0A4.52,4.52,0,0,0,104.85,58Z"/><path class="512e87fb-027c-4d46-8ce3-f8515e7a42d5" d="M67.08,37.44a4.5,4.5,0,1,1-4.5,4.5A4.5,4.5,0,0,1,67.08,37.44Z"/><path class="e28ea1cf-d097-463f-8276-8c999897d63a" d="M79.13,42.37a15.22,15.22,0,0,1-15,15.34,15,15,0,0,1-14-10H41.72L39.34,45,36,48.24,32.68,45,30,47.73H27.41a5.44,5.44,0,0,1,0-10.87H50.1a15,15,0,0,1,14-10,15.21,15.21,0,0,1,15,15.42v0.08Zm-7.55-.43a4.5,4.5,0,1,0-4.5,4.5A4.5,4.5,0,0,0,71.58,41.94Z"/><path class="71073504-a147-4cfc-b01e-3b6744e4650f" d="M39,79.14H49.28c0.2-.07.48-0.16,0.83-0.31a9.68,9.68,0,0,0,3.93-3,9.47,9.47,0,0,0,2-5.54,0.13,0.13,0,0,0-.13-0.13H37.25a11.15,11.15,0,0,0-7.64,3l-6.49,6.14h-5"/><path class="71073504-a147-4cfc-b01e-3b6744e4650f" d="M17.49,99H31.21a20.71,20.71,0,0,0,7.23-1.32c8-3,27.09-10.24,30.77-11.81L89,70.15a1.48,1.48,0,0,0,.52-1.06c-0.06-1.46-3.55-2.66-6-2.79a13.91,13.91,0,0,0-7.65,2.29,12.24,12.24,0,0,0-2.1,1.56L60,79l-0.74,0c-2.21,0-7.08.1-9.16,0.16H49.87"/><path class="ebd72b25-3e70-494c-a6ee-a0763c2b6811" d="M59.28,79l7.15-11.11a9.8,9.8,0,0,1,9.37-4.39l2.27,0.26a0.38,0.38,0,0,1,.34.58l-2.59,4.17"/><path class="ebd72b25-3e70-494c-a6ee-a0763c2b6811" d="M4.52,74.86H16a0.93,0.93,0,0,1,.93.92v27.89a0.65,0.65,0,0,1-.65.65H4.52"/><path class="4068e0c4-aa23-4f7b-b7d3-5cdc2d1ff112" d="M27.41,36.86H50.1a15,15,0,0,1,14-10,15.21,15.21,0,0,1,15,15.42v0.08a15.22,15.22,0,0,1-15,15.34,15,15,0,0,1-14-10H41.72L39.34,45,36,48.24,32.68,45,30,47.73H27.41A5.44,5.44,0,0,1,27.41,36.86Z"/><polygon class="4068e0c4-aa23-4f7b-b7d3-5cdc2d1ff112" points="96.01 42.82 89.64 49.19 90.35 59.79 108.74 78.18 125 61.91 106.62 43.53 96.01 42.82"/><line class="71073504-a147-4cfc-b01e-3b6744e4650f" x1="107.16" y1="68.39" x2="114.94" y2="60.61"/><path class="909ce784-4bc3-42fc-8150-7338d2eea51d" d="M78.72,42.5l0.41-.13A13.52,13.52,0,0,1,86,42a14.37,14.37,0,0,1,6.77,3.5"/></g></svg>