<?xml version="1.0" encoding="UTF-8"?>
<svg width="27px" height="24px" viewBox="0 0 27 24" version="1.1" xmlns="http://www.w3.org/2000/svg" xmlns:xlink="http://www.w3.org/1999/xlink">
    <!-- Generator: Sketch 51.2 (57519) - http://www.bohemiancoding.com/sketch -->
    <title>heart</title>
    <desc>Created with Sketch.</desc>
    <defs>
        <polygon id="path-1" points="0 0 27 0 27 24 0 24"></polygon>
    </defs>
    <g id="Symbols" stroke="none" stroke-width="1" fill="none" fill-rule="evenodd">
        <g id="Teaser" transform="translate(-322.000000, -10.000000)">
            <g id="heart" transform="translate(322.000000, 10.000000)">
              <!--<mask id="mask-2" fill="white">
                  <use xlink:href="#path-1"></use>
              </mask>-->
                <g id="Clip-2"></g>
                <path d="M24.1863115,11.7168441 L13.4907783,22.4884527 L2.81948482,11.6988413 C1.64639592,10.5127791 1,8.93943117 1,7.26313489 C1,5.58691425 1.64026115,4.01356635 2.81335004,2.83370671 C3.98052861,1.65354451 5.53674176,1 7.18849282,1 C8.84637866,1 10.4084273,1.65354451 11.5815162,2.83960677 L12.9343092,4.20705789 C13.2513724,4.52793009 13.7601847,4.52793009 14.0775471,4.20705789 L15.4180705,2.85170945 C16.5911594,1.66564719 18.1532081,1.01210268 19.8052584,1.01210268 C21.4570095,1.01210268 23.0132226,1.66564719 24.1863115,2.84550682 C25.3593256,4.03187165 25.9999608,5.60499262 25.9999608,7.28121326 C26.0057964,8.9574339 25.3593256,10.5308574 24.1863115,11.7168441 Z" id="Path" fill="#000000" opacity="0.204815765" mask="url(#mask-2)"></path>
                <path d="M24.8191309,2.22817562 C23.4054512,0.798572471 21.5337101,0.0172171617 19.5358983,0.0172171617 C17.5383728,0.0172171617 15.6607646,0.804504434 14.2470849,2.23381822 L13.5086916,2.9803775 L12.7587788,2.22224366 C11.3448845,0.792929871 9.46191006,0 7.46409832,0 C5.47215365,0 3.59483167,0.786997908 2.1865182,2.21066909 C0.772838508,3.6401999 -0.00555107613,5.53835581 2.98033173e-05,7.5581893 C2.98033173e-05,9.57780578 0.784286466,11.4703191 2.19796616,12.8998499 L12.9477417,23.7682917 C13.096422,23.9189057 13.2968328,24 13.4913766,24 C13.686135,24 13.8865458,23.9245483 14.0352261,23.7742237 L24.8076829,12.9230714 C26.2215773,11.4934682 26.9999668,9.59538464 26.9999668,7.57547881 C27.0058339,5.55586234 26.2330968,3.65748941 24.8191309,2.22817562 Z M23.7201985,11.817556 L13.4913766,22.1191336 L3.2857368,11.8003388 C2.16383694,10.6660317 1.54564721,9.16133855 1.54564721,7.5581893 C1.54564721,5.9551124 2.15796986,4.45041928 3.27986973,3.32204412 C4.39611717,2.19337959 5.88442324,1.56835322 7.46409832,1.56835322 C9.04964048,1.56835322 10.5435274,2.19337959 11.6654273,3.32768672 L12.9591896,4.63546759 C13.2624174,4.94233818 13.7490272,4.94233818 14.0525412,4.63546759 L15.3345693,3.33926128 C16.4564692,2.20495415 17.9503562,1.57992778 19.5303174,1.57992778 C21.1099925,1.57992778 22.5982986,2.20495415 23.7201985,3.33332931 C24.8420268,4.4679258 25.4547072,5.9724019 25.4547072,7.57547881 C25.4602881,9.17855571 24.8420268,10.6833212 23.7201985,11.817556 Z" id="Fill-1" fill="#FFFFFF" mask="url(#mask-2)"></path>
            </g>
        </g>
    </g>
</svg>
