<svg id="4a2c082a-59aa-429a-91a1-88cc19030c6c" data-name="Livello 1" xmlns="http://www.w3.org/2000/svg" viewBox="0 0 130 130">
  <defs>
    <style>
      .c-1{fill:#f15424;}
      .c-2{fill:#fff;}
      .c-3{fill:#2ab2b8;}
      .c-4,.c-5,.c-6,.c-7{fill:none;stroke-width:3px;}
      .c-5,.c-6,.c-7{stroke:#242d3c;}
      .c-5{stroke-linejoin:round;}
      .c-4,.c-6,.c-7{stroke-miterlimit:10;}
      .c-6{stroke-linecap:round;}
      .c-4{stroke:#fff;}
      .c-8{fill:#57c5d0;}
    </style>
  </defs>
  <title>My-Camper</title>
  <g id="b8306580-f83d-42fc-a6d6-b1ce497c9667" data-name="Insurance Colored">
    <path class="c-1"
          d="M107,98.23c0,6.12-2.75,8.88-7.52,12.48l-5.89,4.44-5.94-4.36c-4.81-3.53-7.69-6.26-7.74-12.38L79.79,86.88,93.3,81.15l13.58,5.54Z"/>
    <path class="c-2"
          d="M113.32,97.42c0.06,9-4.06,14.5-11,19.79l-8.64,6.54-8.74-6.42c-4.1-3-7.24-6.11-9.17-9.94a21.35,21.35,0,0,1-2.18-9.7L73.42,82.18,88.6,75.73l4.65-2,20,8.16ZM99.45,110.71c4.77-3.6,7.57-6.36,7.52-12.48l-0.09-11.54L93.3,81.15,79.79,86.88l0.09,11.53c0.05,6.12,2.93,8.85,7.74,12.38l5.94,4.36Z"/>
    <path class="c-3"
          d="M61.72,16.5H71.5v12h-37v-12H44.78a1.19,1.19,0,0,0,0-.69,8.5,8.5,0,1,1,17-.06A2.56,2.56,0,0,0,61.72,16.5Z"/>
    <path class="c-2"
          d="M86.5,75.5l0.1,1.23L73.42,82.18l0.12,15.51a21.35,21.35,0,0,0,2.18,9.7l-2.22.11h-53a2,2,0,0,1-2-2v-83a2,2,0,0,1,2-2h14v8h37v-9h14a2,2,0,0,1,2,2Z"/>
    <path class="c-5"
          d="M75.72,107.39c1.93,3.83,5.07,6.92,9.17,9.94l8.74,6.42,8.64-6.54c7-5.29,11.11-10.78,11-19.79L113.2,81.91l-20-8.16-4.65,2L73.42,82.18l0.12,15.51A21.35,21.35,0,0,0,75.72,107.39Z"/>
    <path class="c-5"
          d="M93.56,115.15l5.89-4.44c4.77-3.6,7.57-6.36,7.52-12.48l-0.09-11.54L93.3,81.15,79.79,86.88l0.09,11.53c0.05,6.12,2.93,8.85,7.74,12.38Z"/>
    <path class="c-7" d="M71.5,19.5v-3H61.72a2.56,2.56,0,0,1,0-.75,8.5,8.5,0,1,0-17,.06,1.19,1.19,0,0,1,0,.69H34.5v12h37v-9Z"/>
    <path class="c-7" d="M75.5,107.5h-55a2,2,0,0,1-2-2v-83a2,2,0,0,1,2-2h13"/>
    <path class="c-7" d="M71.5,19.5h14a2,2,0,0,1,2,2v54"/>
    <line class="c-6" x1="43" y1="82.5" x2="63" y2="82.5"/>
    <line class="c-6" x1="42.5" y1="90.5" x2="63.5" y2="90.5"/>
    <polyline class="c-4" points="88.87 97.82 92.99 101.07 98.88 93.7"/>
    <path class="c-8"
          d="M72,50H69L66.36,38.55A2,2,0,0,0,64.41,37H41.59a2,2,0,0,0-1.95,1.55L37,50H34a1,1,0,0,0-1,1v4a1,1,0,0,0,1,1h2V68.25A1.75,1.75,0,0,0,37.75,70H39v3.25a0.75,0.75,0,0,0,.75.75H44a1,1,0,0,0,1-1V70H61v3.25a0.75,0.75,0,0,0,.75.75H66a1,1,0,0,0,1-1V70h1a2,2,0,0,0,2-2V56h2a1,1,0,0,0,1-1V51A1,1,0,0,0,72,50Z"/>
    <path class="c-2" d="M61.15,41H44.85a1,1,0,0,0-1,.84L42,53H64L62.14,41.84A1,1,0,0,0,61.15,41Z"/>
    <rect class="c-2" x="40.01" y="62" width="6" height="4"/>
    <rect class="c-2" x="60.01" y="62" width="6" height="4"/>
  </g>
</svg>
