<svg id="138f9198-29f6-403f-9b9d-8516b6584595" data-name="Livello 1" xmlns="http://www.w3.org/2000/svg" viewBox="0 0 130 130"><defs><style>.\33 59a8836-ec45-40dc-a74b-568ba9f10228,.df00cedb-0438-49f5-93c9-373ef8aead3b,.f6b5a540-e85d-450b-aae9-33e35706fb1e{fill:none;stroke:#242d3c;stroke-width:3px;}.f6b5a540-e85d-450b-aae9-33e35706fb1e{stroke-linejoin:round;}.\33 59a8836-ec45-40dc-a74b-568ba9f10228,.df00cedb-0438-49f5-93c9-373ef8aead3b{stroke-miterlimit:10;}.df00cedb-0438-49f5-93c9-373ef8aead3b{stroke-linecap:round;}.\34 f8bb614-0f47-4612-9df7-09fc152a21a7{fill:#fff;}.\38 32a92ac-b125-44d4-856f-82b0a8ce490c{fill:#242d3c;}</style></defs><title>My-Camper</title><g id="6ac6718f-52e7-408a-a376-0476d9cc4f5d" data-name="Insurance"><path class="f6b5a540-e85d-450b-aae9-33e35706fb1e" d="M75.72,107.39c1.93,3.83,5.07,6.92,9.17,9.94l8.74,6.42,8.64-6.54c7-5.29,11.11-10.78,11-19.79L113.2,81.91l-20-8.16-4.65,2L73.42,82.18l0.12,15.51A21.35,21.35,0,0,0,75.72,107.39Z"/><path class="f6b5a540-e85d-450b-aae9-33e35706fb1e" d="M93.56,115.15l5.89-4.44c4.77-3.6,7.57-6.36,7.52-12.48l-0.09-11.54L93.3,81.15,79.79,86.88l0.09,11.53c0.05,6.12,2.93,8.85,7.74,12.38Z"/><path class="359a8836-ec45-40dc-a74b-568ba9f10228" d="M71.5,19.5v-3H61.72a2.56,2.56,0,0,1,0-.75,8.5,8.5,0,1,0-17,.06,1.19,1.19,0,0,1,0,.69H34.5v12h37v-9Z"/><path class="359a8836-ec45-40dc-a74b-568ba9f10228" d="M75.5,107.5h-55a2,2,0,0,1-2-2v-83a2,2,0,0,1,2-2h13"/><path class="359a8836-ec45-40dc-a74b-568ba9f10228" d="M71.5,19.5h14a2,2,0,0,1,2,2v54"/><line class="df00cedb-0438-49f5-93c9-373ef8aead3b" x1="43" y1="82.5" x2="63" y2="82.5"/><line class="df00cedb-0438-49f5-93c9-373ef8aead3b" x1="42.5" y1="90.5" x2="63.5" y2="90.5"/><polyline class="359a8836-ec45-40dc-a74b-568ba9f10228" points="88.87 97.82 92.99 101.07 98.88 93.7"/><rect class="4f8bb614-0f47-4612-9df7-09fc152a21a7" x="40.01" y="62" width="6" height="4"/><path class="832a92ac-b125-44d4-856f-82b0a8ce490c" d="M72,50H69L66.36,38.55A2,2,0,0,0,64.41,37H41.59a2,2,0,0,0-1.95,1.55L37,50H34a1,1,0,0,0-1,1v4a1,1,0,0,0,1,1h2V68.25A1.75,1.75,0,0,0,37.75,70H39v3.25a0.75,0.75,0,0,0,.75.75H44a1,1,0,0,0,1-1V70H61v3.25a0.75,0.75,0,0,0,.75.75H66a1,1,0,0,0,1-1V70h1a2,2,0,0,0,2-2V56h2a1,1,0,0,0,1-1V51A1,1,0,0,0,72,50ZM43.86,41.84a1,1,0,0,1,1-.84H61.15a1,1,0,0,1,1,.84L64,53H42ZM46,66H40V62h6v4Zm20,0H60V62h6v4Z"/></g></svg>