<?xml version="1.0" encoding="UTF-8"?>
<svg width="67px" height="38px" viewBox="0 0 67 38" version="1.1" xmlns="http://www.w3.org/2000/svg" xmlns:xlink="http://www.w3.org/1999/xlink">
    <!-- Generator: Sketch 51.2 (57519) - http://www.bohemiancoding.com/sketch -->
    <title>Mountain</title>
    <desc>Created with Sketch.</desc>
    <defs></defs>
    <g id="01_Desktop" stroke="none" stroke-width="1" fill="none" fill-rule="evenodd" opacity="0.206040112">
        <g id="01_Home" transform="translate(-627.000000, -3810.000000)" fill="#000000">
            <g id="Mountain" transform="translate(627.000000, 3810.000000)">
                <path d="M6.70393785,21.1173416 L3.83389071,21.1173416 L5.07896467,18.912178 C5.23489055,18.6356992 5.23255749,18.2960813 5.07235435,18.0215633 C4.91292889,17.7470454 4.5999106,17.5791972 4.30400139,17.5831189 L3.81600395,17.587825 L7.79269709,8.12244571 L11.9622562,17.5831189 L11.8631013,17.5831189 C11.5411396,17.5831189 11.2444527,17.7603791 11.0900822,18.0454856 C10.934934,18.3305921 10.9469882,18.6776612 11.120412,18.951787 L12.4945817,21.1173416 L9.68947124,21.1173416 C9.20264032,21.1173416 8.80757625,21.5153926 8.80757625,22.0067798 L8.80757625,27.8595027 L7.58544399,29.0920883 L7.58544399,22.0067798 C7.58544399,21.5153926 7.19076877,21.1173416 6.70393785,21.1173416 Z M13.7291569,22.8958258 L13.4837972,23.1432841 C13.4826307,23.1440685 13.4822418,23.1448528 13.4814642,23.1456371 L10.5709774,26.0810184 L10.5709774,22.8958258 L13.7291569,22.8958258 Z M22.7938553,16.2681779 L25.9827534,19.3870941 L20.7528205,25.0221635 L19.9086433,23.366428 C19.7573835,23.0699486 19.454864,22.8840607 19.1243478,22.8840607 L16.2344697,22.8840607 L22.7938553,16.2681779 Z M29.4317871,22.7609198 L35.6225499,28.8152173 L23.4020051,28.8152173 L29.4317871,22.7609198 Z M42.2060438,9.93544074 L54.0074163,24.0272319 L44.8252875,19.6929855 C44.4399445,19.5110193 43.9807214,19.6325916 43.7341952,19.9812294 L41.0861771,23.720164 L34.7348223,17.4372322 L42.2060438,9.93544074 Z M1.50511245,37.739404 L14.4710685,24.6625449 L18.5865785,24.6625449 L19.7569947,26.9582994 C19.8884235,27.215562 20.1353385,27.3920378 20.4191936,27.4324311 C20.4600221,27.4379215 20.5008505,27.4406667 20.5409013,27.4406667 C20.7831503,27.4406667 21.0168447,27.3398794 21.1844358,27.1590897 L27.248436,20.6247779 L28.1661045,21.5224516 L20.6443335,29.0744407 C20.3919746,29.3281737 20.3153726,29.7113224 20.4514675,30.0438813 C20.5879513,30.3768323 20.9095241,30.5937015 21.2664816,30.5937015 L37.7981242,30.5937015 C38.1574148,30.5937015 38.480543,30.3740872 38.6154713,30.0387831 C38.7500109,29.7026947 38.6695205,29.3183695 38.4117178,29.0662052 L30.6823049,21.5059806 L33.4846934,18.6921715 L40.5869033,25.7178704 C40.7708258,25.8998366 41.0196851,25.991604 41.2813761,25.9688583 C41.5380122,25.9461125 41.7720955,25.8112065 41.9217999,25.5998277 L44.742464,21.6173564 L56.7265926,27.2739951 L65.4448322,37.6845004 C65.6190337,37.8927419 65.867893,37.9998039 66.1186964,37.9998039 C66.319728,37.9998039 66.5219262,37.9311744 66.6871843,37.7899938 C67.0589178,37.4731216 67.1063566,36.9123206 66.7917829,36.5370154 L57.9312269,25.9570932 L57.9304492,25.9559167 L42.9355125,8.05067887 C42.7772536,7.86086931 42.5462811,7.74674827 42.3001437,7.73615972 C42.0532287,7.72321816 41.815257,7.81929944 41.639889,7.9942066 L29.4158446,20.2679046 L23.3977278,14.3822395 C23.0524356,14.0437981 22.5018345,14.0473276 22.1608196,14.3916516 L14.9236813,21.6910841 C14.9026838,21.635004 14.8812975,21.5789239 14.8486347,21.5271577 L13.4662993,19.3490537 C13.7073817,19.3078761 13.9231893,19.1670876 14.0585066,18.9568852 C14.2210428,18.7043287 14.2463175,18.3858879 14.1253875,18.1109777 L8.57932565,5.52825099 C8.4373981,5.20667281 8.12165792,5 7.77325496,5 C7.77092191,5 7.76820001,5 7.76586695,5 C7.41435325,5.00352952 7.09822423,5.21647702 6.96174048,5.54236905 L1.66764865,18.1435277 C1.55138471,18.4196144 1.58132559,18.7360944 1.74658369,18.9851214 C1.91145295,19.2341484 2.18403161,19.375329 2.48771767,19.3796429 L2.7875153,19.3768977 L1.55099587,21.5667667 C1.39545884,21.842069 1.39701421,22.1797261 1.5548843,22.4534597 C1.71275439,22.7271933 2.0032198,22.8958258 2.31740461,22.8958258 L5.82204286,22.8958258 L5.82204286,30.8705725 L0.258094268,36.4821118 C-0.0860314226,36.8291809 -0.0860314226,37.3923349 0.258094268,37.739404 C0.6026088,38.0868653 1.16059791,38.0868653 1.50511245,37.739404 Z" id="Fill-24"></path>
                <path d="M21.8787359,5.18708232 C22.120046,4.32630357 22.9346167,3.6768178 23.7726425,3.6768178 C24.1252654,3.6768178 24.4651668,3.7888671 24.782408,4.01016447 C24.9903243,4.15542839 25.249524,4.20585057 25.4960022,4.14942575 C25.7432755,4.09300092 25.9551672,3.93413102 26.0799965,3.71283365 C27.0114455,2.0609068 28.3297063,1.81479851 29.0321692,1.81479851 C29.9481139,1.81479851 30.8453741,2.21417424 31.3753022,2.85805755 C31.6424528,3.18300052 31.932661,3.71923646 31.7990857,4.42714795 C31.7386588,4.74688863 31.8531519,5.07423266 32.0984374,5.28592581 C32.3429279,5.49721878 32.6828293,5.56084677 32.9869516,5.4515987 C33.3900627,5.30713514 33.7725014,5.23390292 34.1243292,5.23390292 C35.5539027,5.23390292 36.1971313,6.44003361 36.1971313,7.29601024 C36.1971313,7.58013526 36.1271633,7.81944055 36.0003463,7.96990676 C35.9550261,8.02313018 35.8190655,8.18520149 35.4227127,8.18520149 L23.4820368,8.18520149 C22.1705343,7.30761535 21.5877326,6.22433871 21.8787359,5.18708232 Z M22.7477703,9.86634119 C22.8900916,9.95357958 23.0530852,10 23.2192592,10 L35.4227127,10 C36.4400316,10 37.0454933,9.53459522 37.374661,9.14402337 C37.7837353,8.65860979 38,8.01992877 38,7.29601024 C38,5.4315899 36.5179505,3.41910441 34.1243292,3.41910441 C33.9458312,3.41910441 33.7649481,3.43030934 33.5820771,3.45231902 C33.4723546,2.82404258 33.1956629,2.22617952 32.7639285,1.70074833 C31.8877383,0.635879787 30.4927512,0 29.0321692,0 C27.4399995,0 26.0048604,0.749929969 24.9907219,2.08571772 C24.598742,1.93805274 24.1880776,1.86201929 23.7726425,1.86201929 C22.1299846,1.86201929 20.60341,3.0529433 20.1434499,4.69406539 C19.6099439,6.59650246 20.5835327,8.52975309 22.7477703,9.86634119 Z" id="Fill-25"></path>
            </g>
        </g>
    </g>
</svg>