<svg id="91396615-5f1c-479b-a25a-877bc00ba538" data-name="Livello 1" xmlns="http://www.w3.org/2000/svg" viewBox="0 0 130 130"><defs><style>.\36 d2848a7-8eb5-4668-b435-b74b13996a54{fill:#57c5d0;}.\38 cd19dea-13d6-4644-8047-b12dafc3849d{fill:#fff;}.cce33d0e-3a6e-4f12-bb5e-c81deb8a746a{fill:#2ab2b8;}.\37 758da4a-f8a4-4cf6-af75-ad67ad517fc4{fill:#f15424;}.\38 d838ff0-365b-4b6a-aef5-ff4322878ea9,.f951d228-2309-4851-8324-4962f9997bbe{fill:none;stroke-miterlimit:10;stroke-width:3px;}.\38 d838ff0-365b-4b6a-aef5-ff4322878ea9{stroke:#242d3c;}.f951d228-2309-4851-8324-4962f9997bbe{stroke:#fff;stroke-linecap:round;}</style></defs><title>My-Camper</title><g id="a04a4cd1-28f0-47e0-8b19-f501384e40a3" data-name="Personal Colored"><path class="6d2848a7-8eb5-4668-b435-b74b13996a54" d="M121,121.86v0.73l-61.58-.39v-0.73a8.63,8.63,0,0,1,5-7.81l2.66-1.25,0-.11a14.14,14.14,0,0,0,4.86.85,14.35,14.35,0,0,0,11.34-5.49c0,2.08-.07,3.9-0.08,4.41a11.26,11.26,0,0,0,14.52,0c0-1.37,0-2.83-.07-4.31h0a14.34,14.34,0,0,0,11.42,5.6,14.62,14.62,0,0,0,4.32-.65l2.52,1.34A8.65,8.65,0,0,1,121,121.86Z"/><path class="8cd19dea-13d6-4644-8047-b12dafc3849d" d="M83.32,107.66c0.05-2.23.1-4.78,0.13-6.37a11.36,11.36,0,0,1-3.1-3.19C79.05,96,78.78,95,78.62,89c-0.06-2.36-.1-3.25-0.07-6.5a28.2,28.2,0,0,0,10-2.37A27.41,27.41,0,0,0,94,76.94a28.76,28.76,0,0,0,3.73-3.33,13.23,13.23,0,0,1,1.51,1.14,11.19,11.19,0,0,1,2.45,3.43,8,8,0,0,1,.81,3.49v0.94c0,3.25,0,4.14-.07,6.5-0.16,6-.43,8-1.73,10a11.36,11.36,0,0,1-3.1,3.19c0,1.71.06,3.57,0.08,5.41,0,1.48,0,2.94.07,4.31a11.26,11.26,0,0,1-14.52,0C83.25,111.56,83.29,109.74,83.32,107.66Z"/><path class="cce33d0e-3a6e-4f12-bb5e-c81deb8a746a" d="M113.44,112.71a14.62,14.62,0,0,1-4.32.65,14.34,14.34,0,0,1-11.42-5.6h0c0-1.84,0-3.7-.08-5.41a11.36,11.36,0,0,0,3.1-3.19c1.3-2.06,1.57-4.09,1.73-10,0.06-2.36.1-3.25,0.07-6.5V81.67a8,8,0,0,0-.81-3.49,11.19,11.19,0,0,0-2.45-3.43,13.23,13.23,0,0,0-1.51-1.14A28.76,28.76,0,0,1,94,76.94a27.41,27.41,0,0,1-5.45,3.22,28.2,28.2,0,0,1-10,2.37c0,3.25,0,4.14.07,6.5,0.16,6,.43,7,1.73,9.07a11.36,11.36,0,0,0,3.1,3.19c0,1.59-.08,4.14-0.13,6.37A14.35,14.35,0,0,1,72,113.15a14.2,14.2,0,0,1-12.47-7.37,26.64,26.64,0,0,0,5.81-5,21.22,21.22,0,0,0,2.81-4.1,21.24,21.24,0,0,0,1.72-6.13,75.09,75.09,0,0,0,1-10.4l0-1.59a19.76,19.76,0,0,1,39.5,0s0.23,7.52.94,11.94c0.16,1,.36,2,0.59,2.94a14.64,14.64,0,0,0,1.14,3.24,24.07,24.07,0,0,0,8.62,9A12.42,12.42,0,0,1,113.44,112.71Z"/><path class="6d2848a7-8eb5-4668-b435-b74b13996a54" d="M64.7,51.32v24a1,1,0,0,1-1,1H57.92v7.31l-8.77-7.31H31.7a1,1,0,0,1-1-1v-24a1,1,0,0,1,1-1h32A1,1,0,0,1,64.7,51.32ZM56.5,65.5v-3h-3v3h3Zm-7,0v-3h-3v3h3Zm-7,0v-3h-3v3h3Z"/><path class="7758da4a-f8a4-4cf6-af75-ad67ad517fc4" d="M50.2,9.19v31a1,1,0,0,1-1,1H24.76L15,49.5V41.19H9.2a1,1,0,0,1-1-1v-31a1,1,0,0,1,1-1h40A1,1,0,0,1,50.2,9.19ZM29.83,33a1.5,1.5,0,1,0-1.5,1.5A1.5,1.5,0,0,0,29.83,33Z"/><rect class="8cd19dea-13d6-4644-8047-b12dafc3849d" x="53.5" y="62.5" width="3" height="3"/><rect class="8cd19dea-13d6-4644-8047-b12dafc3849d" x="46.5" y="62.5" width="3" height="3"/><rect class="8cd19dea-13d6-4644-8047-b12dafc3849d" x="39.5" y="62.5" width="3" height="3"/><circle class="8cd19dea-13d6-4644-8047-b12dafc3849d" cx="28.33" cy="33" r="1.5"/><path class="8d838ff0-365b-4b6a-aef5-ff4322878ea9" d="M24.76,41.19L15,49.5V41.19H9.2a1,1,0,0,1-1-1v-31a1,1,0,0,1,1-1h40a1,1,0,0,1,1,1v31a1,1,0,0,1-1,1H24.76Z"/><path class="8d838ff0-365b-4b6a-aef5-ff4322878ea9" d="M113.19,112.57l0.25,0.14,2.52,1.34a8.65,8.65,0,0,1,5,7.81v0.73l-61.58-.39v-0.73a8.63,8.63,0,0,1,5-7.81l2.66-1.25"/><path class="8d838ff0-365b-4b6a-aef5-ff4322878ea9" d="M83.32,107.66c0,2.08-.07,3.9-0.08,4.41a11.26,11.26,0,0,0,14.52,0c0-1.37,0-2.83-.07-4.31,0-1.84,0-3.7-.08-5.41a11.36,11.36,0,0,0,3.1-3.19c1.3-2.06,1.57-4.09,1.73-10,0.06-2.36.1-3.25,0.07-6.5V81.67a8,8,0,0,0-.81-3.49,11.19,11.19,0,0,0-2.45-3.43,13.23,13.23,0,0,0-1.51-1.14A28.76,28.76,0,0,1,94,76.94a27.41,27.41,0,0,1-5.45,3.22,28.2,28.2,0,0,1-10,2.37c0,3.25,0,4.14.07,6.5,0.16,6,.43,7,1.73,9.07a11.36,11.36,0,0,0,3.1,3.19C83.42,102.88,83.37,105.43,83.32,107.66Z"/><path class="8d838ff0-365b-4b6a-aef5-ff4322878ea9" d="M83.33,107.65h0A14.35,14.35,0,0,1,72,113.15a14.2,14.2,0,0,1-12.47-7.37,26.64,26.64,0,0,0,5.81-5,21.22,21.22,0,0,0,2.81-4.1,21.24,21.24,0,0,0,1.72-6.13,75.09,75.09,0,0,0,1-10.4l0-1.59a19.76,19.76,0,0,1,39.5,0s0.23,7.52.94,11.94c0.16,1,.36,2,0.59,2.94a14.64,14.64,0,0,0,1.14,3.24,24.07,24.07,0,0,0,8.62,9,12.42,12.42,0,0,1-8.25,7,14.62,14.62,0,0,1-4.32.65,14.34,14.34,0,0,1-11.42-5.6"/><path class="8d838ff0-365b-4b6a-aef5-ff4322878ea9" d="M49.15,76.32l8.77,7.31V76.32H63.7a1,1,0,0,0,1-1v-24a1,1,0,0,0-1-1h-32a1,1,0,0,0-1,1v24a1,1,0,0,0,1,1H49.15Z"/><path class="f951d228-2309-4851-8324-4962f9997bbe" d="M23.93,20.16a4.5,4.5,0,0,1,8.9,1c0,2.49-4.5,5.5-4.5,5.5v1.79"/></g></svg>