<svg id="e69c4be1-a82c-4f20-85b1-598e9c4f8ad0" data-name="Livello 1" xmlns="http://www.w3.org/2000/svg" viewBox="0 0 130 130"><defs><style>.\33 41ff499-3336-4873-9222-63f080c59f06,.\39 60185a3-d15f-4a93-a370-f895b2ba79a9,.d82e0e54-2b37-4d9c-989f-af316a9a9dc0,.e5a0bfe6-a885-41f6-bf7c-fc915ed50ffb{fill:none;stroke:#242d3c;stroke-miterlimit:10;stroke-width:3px;}.\39 60185a3-d15f-4a93-a370-f895b2ba79a9{stroke-linecap:round;}.e5a0bfe6-a885-41f6-bf7c-fc915ed50ffb{stroke-dasharray:3 3;}.\33 41ff499-3336-4873-9222-63f080c59f06{stroke-dasharray:3;}</style></defs><title>My-Camper</title><g id="2598bd91-14a2-4d3a-ba8d-5ad5dec86c24" data-name="MyCamper Experience"><polygon class="960185a3-d15f-4a93-a370-f895b2ba79a9" points="16.96 49.5 25.96 39 31.46 42.25 43.38 30.71 61.96 49.5 16.96 49.5"/><polygon class="960185a3-d15f-4a93-a370-f895b2ba79a9" points="123.5 116.5 87.63 125.5 44.3 116.5 6.5 124.5 6.5 15.5 45.3 5.5 86.3 15.5 123.5 6.5 123.5 116.5"/><path class="e5a0bfe6-a885-41f6-bf7c-fc915ed50ffb" d="M34.46,31.08c5.27-6,10-7.62,13.25-8.08C66.55,20.3,81.29,51.11,97,46.75A14.45,14.45,0,0,0,104,42"/><path class="341ff499-3336-4873-9222-63f080c59f06" d="M37.71,104.75c10,1.66,18.54,2.64,25.25,3.25,32,2.91,39.18-1,43-4.25,1.49-1.26,6.67-5.65,7-12.25,0.33-6.79-4.59-13.6-12.5-17.75"/><path class="341ff499-3336-4873-9222-63f080c59f06" d="M57,65.5A30.18,30.18,0,0,1,33.21,55.25"/><path class="d82e0e54-2b37-4d9c-989f-af316a9a9dc0" d="M40.5,83c0,6.9-12.5,23.5-12.5,23.5S15.5,89.9,15.5,83A12.5,12.5,0,0,1,40.5,83Z"/><circle class="d82e0e54-2b37-4d9c-989f-af316a9a9dc0" cx="28" cy="83" r="4.5"/><path class="d82e0e54-2b37-4d9c-989f-af316a9a9dc0" d="M92.94,73.42a5.5,5.5,0,1,0-9.88,0,1,1,0,0,1-.19,1.13,7.5,7.5,0,1,0,10.27,0A1,1,0,0,1,92.94,73.42Z"/><line class="d82e0e54-2b37-4d9c-989f-af316a9a9dc0" x1="88" y1="95.5" x2="88" y2="87.5"/><line class="d82e0e54-2b37-4d9c-989f-af316a9a9dc0" x1="101.99" y1="22.97" x2="113.31" y2="34.28"/><line class="d82e0e54-2b37-4d9c-989f-af316a9a9dc0" x1="101.96" y1="34.31" x2="113.28" y2="23"/><path class="d82e0e54-2b37-4d9c-989f-af316a9a9dc0" d="M74.15,73.42a5.5,5.5,0,1,0-9.88,0,1,1,0,0,1-.19,1.13,7.5,7.5,0,1,0,10.27,0A1,1,0,0,1,74.15,73.42Z"/><line class="d82e0e54-2b37-4d9c-989f-af316a9a9dc0" x1="69.21" y1="95.5" x2="69.21" y2="87.5"/></g></svg>