<svg id="987ccb1b-389d-4352-9af4-ce23e725d551" data-name="Livello 1" xmlns="http://www.w3.org/2000/svg" viewBox="0 0 130 130"><defs><style>.\36 f8266aa-84b9-4d50-a549-e00d6c04c075{fill:#57c5d0;}.a00d8c21-cef2-496c-8633-f0167e825a47{fill:#f15424;}.\36 7cac570-baf4-493e-9e08-b0aac50afc84{fill:#242d3c;}.\31 b809053-c97a-4440-a605-83a0929086c6,.a66c88a0-f74b-4bc6-8ae3-b9293afe5e4c{fill:none;stroke:#242d3c;stroke-miterlimit:10;stroke-width:3px;}.a66c88a0-f74b-4bc6-8ae3-b9293afe5e4c{stroke-linecap:round;}</style></defs><title>My-Camper</title><g id="3e6fe18e-78fe-4997-a39f-a35887ff860b" data-name="Personal Colored"><path class="6f8266aa-84b9-4d50-a549-e00d6c04c075" d="M56.5,65.5v-3h-3v3h3Zm-7,0v-3h-3v3h3Zm-7,0v-3h-3v3h3Z"/><path class="a00d8c21-cef2-496c-8633-f0167e825a47" d="M29.83,33a1.5,1.5,0,1,0-1.5,1.5A1.5,1.5,0,0,0,29.83,33Z"/><rect class="67cac570-baf4-493e-9e08-b0aac50afc84" x="53.5" y="62.5" width="3" height="3"/><rect class="67cac570-baf4-493e-9e08-b0aac50afc84" x="46.5" y="62.5" width="3" height="3"/><rect class="67cac570-baf4-493e-9e08-b0aac50afc84" x="39.5" y="62.5" width="3" height="3"/><circle class="67cac570-baf4-493e-9e08-b0aac50afc84" cx="28.33" cy="33" r="1.5"/><path class="1b809053-c97a-4440-a605-83a0929086c6" d="M24.76,41.19L15,49.5V41.19H9.2a1,1,0,0,1-1-1v-31a1,1,0,0,1,1-1h40a1,1,0,0,1,1,1v31a1,1,0,0,1-1,1H24.76Z"/><path class="1b809053-c97a-4440-a605-83a0929086c6" d="M113.19,112.57l0.25,0.14,2.52,1.34a8.65,8.65,0,0,1,5,7.81v0.73l-61.58-.39v-0.73a8.63,8.63,0,0,1,5-7.81l2.66-1.25"/><path class="1b809053-c97a-4440-a605-83a0929086c6" d="M83.32,107.66c0,2.08-.07,3.9-0.08,4.41a11.26,11.26,0,0,0,14.52,0c0-1.37,0-2.83-.07-4.31,0-1.84,0-3.7-.08-5.41a11.36,11.36,0,0,0,3.1-3.19c1.3-2.06,1.57-4.09,1.73-10,0.06-2.36.1-3.25,0.07-6.5V81.67a8,8,0,0,0-.81-3.49,11.19,11.19,0,0,0-2.45-3.43,13.23,13.23,0,0,0-1.51-1.14A28.76,28.76,0,0,1,94,76.94a27.41,27.41,0,0,1-5.45,3.22,28.2,28.2,0,0,1-10,2.37c0,3.25,0,4.14.07,6.5,0.16,6,.43,7,1.73,9.07a11.36,11.36,0,0,0,3.1,3.19C83.42,102.88,83.37,105.43,83.32,107.66Z"/><path class="1b809053-c97a-4440-a605-83a0929086c6" d="M83.33,107.65h0A14.35,14.35,0,0,1,72,113.15a14.2,14.2,0,0,1-12.47-7.37,26.64,26.64,0,0,0,5.81-5,21.22,21.22,0,0,0,2.81-4.1,21.24,21.24,0,0,0,1.72-6.13,75.09,75.09,0,0,0,1-10.4l0-1.59a19.76,19.76,0,0,1,39.5,0s0.23,7.52.94,11.94c0.16,1,.36,2,0.59,2.94a14.64,14.64,0,0,0,1.14,3.24,24.07,24.07,0,0,0,8.62,9,12.42,12.42,0,0,1-8.25,7,14.62,14.62,0,0,1-4.32.65,14.34,14.34,0,0,1-11.42-5.6"/><path class="1b809053-c97a-4440-a605-83a0929086c6" d="M49.15,76.32l8.77,7.31V76.32H63.7a1,1,0,0,0,1-1v-24a1,1,0,0,0-1-1h-32a1,1,0,0,0-1,1v24a1,1,0,0,0,1,1H49.15Z"/><path class="a66c88a0-f74b-4bc6-8ae3-b9293afe5e4c" d="M23.93,20.16a4.5,4.5,0,0,1,8.9,1c0,2.49-4.5,5.5-4.5,5.5v1.79"/></g></svg>