<svg id="e1bfd07a-7326-47ff-ba42-c01cc49dc213" data-name="Livello 1" xmlns="http://www.w3.org/2000/svg" viewBox="0 0 130 130"><defs><style>.\34 bdeb455-a94a-437a-998a-5e713951368a,.d63273af-ae7e-44b8-8cbe-2c871e640300,.e1335083-e4e9-44f8-b785-6b5209573f97{fill:none;stroke:#242d3c;stroke-miterlimit:10;}.\34 bdeb455-a94a-437a-998a-5e713951368a{stroke-linecap:round;}.\34 bdeb455-a94a-437a-998a-5e713951368a,.e1335083-e4e9-44f8-b785-6b5209573f97{stroke-width:3px;}.d63273af-ae7e-44b8-8cbe-2c871e640300{stroke-width:2px;}</style></defs><title>My-Camper</title><g id="e6bbb350-26cb-4327-bef7-752171ee819a" data-name="Renting Out"><path class="4bdeb455-a94a-437a-998a-5e713951368a" d="M52.24,102.41H62.52c0.2-.07.48-0.16,0.83-0.31a9.68,9.68,0,0,0,3.93-3,9.47,9.47,0,0,0,2-5.54,0.13,0.13,0,0,0-.13-0.13H50.49a11.15,11.15,0,0,0-7.64,3l-6.49,6.14h-5"/><path class="4bdeb455-a94a-437a-998a-5e713951368a" d="M30.73,122.24H44.45a20.71,20.71,0,0,0,7.23-1.32c8-3,27.09-10.24,30.77-11.81l19.79-15.68a1.48,1.48,0,0,0,.52-1.06c-0.06-1.46-3.55-2.66-6-2.79a13.91,13.91,0,0,0-7.65,2.29A12.24,12.24,0,0,0,87,93.42l-13.77,8.8-0.74,0c-2.21.05-7.08,0.1-9.16,0.16H63.11"/><path class="e1335083-e4e9-44f8-b785-6b5209573f97" d="M72.52,102.24l7.15-11.11A9.8,9.8,0,0,1,89,86.74L91.31,87a0.38,0.38,0,0,1,.34.58l-2.59,4.17"/><path class="e1335083-e4e9-44f8-b785-6b5209573f97" d="M17.76,98.13H29.2a0.93,0.93,0,0,1,.93.92v27.89a0.65,0.65,0,0,1-.65.65H17.76"/><circle class="e1335083-e4e9-44f8-b785-6b5209573f97" cx="66.68" cy="17.17" r="14.5"/><path class="e1335083-e4e9-44f8-b785-6b5209573f97" d="M70,13.55a2.58,2.58,0,0,0-.52-0.78,3.88,3.88,0,0,0-2.8-1.1c-1.93,0-3.5,1.23-3.5,2.75s1.57,2.74,3.5,2.74,3.5,1.23,3.5,2.75-1.57,2.75-3.5,2.75a4,4,0,0,1-2.44-.78A2.87,2.87,0,0,1,63.48,21"/><line class="d63273af-ae7e-44b8-8cbe-2c871e640300" x1="66.68" y1="8.17" x2="66.68" y2="11.17"/><line class="d63273af-ae7e-44b8-8cbe-2c871e640300" x1="66.68" y1="23.17" x2="66.68" y2="25.97"/><circle class="e1335083-e4e9-44f8-b785-6b5209573f97" cx="65.68" cy="69.17" r="14.5"/><path class="e1335083-e4e9-44f8-b785-6b5209573f97" d="M69,65.55a2.58,2.58,0,0,0-.52-0.78,3.88,3.88,0,0,0-2.8-1.1c-1.93,0-3.5,1.23-3.5,2.75s1.57,2.74,3.5,2.74,3.5,1.23,3.5,2.75-1.57,2.75-3.5,2.75a4,4,0,0,1-2.44-.78A2.87,2.87,0,0,1,62.48,73"/><line class="d63273af-ae7e-44b8-8cbe-2c871e640300" x1="65.68" y1="60.17" x2="65.68" y2="63.17"/><line class="d63273af-ae7e-44b8-8cbe-2c871e640300" x1="65.68" y1="75.17" x2="65.68" y2="77.97"/><circle class="e1335083-e4e9-44f8-b785-6b5209573f97" cx="95.68" cy="43.17" r="14.5"/><path class="e1335083-e4e9-44f8-b785-6b5209573f97" d="M99,39.55a2.58,2.58,0,0,0-.52-0.78,3.88,3.88,0,0,0-2.8-1.1c-1.93,0-3.5,1.23-3.5,2.75s1.57,2.74,3.5,2.74,3.5,1.23,3.5,2.75-1.57,2.75-3.5,2.75a4,4,0,0,1-2.44-.78A2.87,2.87,0,0,1,92.48,47"/><line class="d63273af-ae7e-44b8-8cbe-2c871e640300" x1="95.68" y1="34.17" x2="95.68" y2="37.17"/><line class="d63273af-ae7e-44b8-8cbe-2c871e640300" x1="95.68" y1="49.17" x2="95.68" y2="51.97"/></g></svg>