<svg id="e8b34c36-7daa-4594-825c-798c189650f9" data-name="Livello 1" xmlns="http://www.w3.org/2000/svg" viewBox="0 0 130 130"><defs><style>.cdeeaea9-f866-4e1d-992e-fc6b461ca6a1{fill:#fff;}.d940fe7a-5de1-452f-957b-14b7301de731{fill:none;stroke:#242d3c;stroke-linejoin:round;stroke-width:3px;}.uehrbfjd-wirr-2834{fill:#f15424;}</style></defs><title>My-Camper</title><g id="b9187636-b0e1-43a6-8601-7cc290ebced2" data-name="Safe and Sound Colored"><polygon class="cdeeaea9-f866-4e1d-992e-fc6b461ca6a1" points="88.41 48.96 62.48 83.96 40.19 66.3 46.41 58.38 60.12 68.96 78.41 42.96 88.41 48.96"/><path class="cdeeaea9-f866-4e1d-992e-fc6b461ca6a1" d="M29.5,63.66c0,14.86,7.23,26.8,19.43,35.46L62.84,109a2,2,0,0,0,2.32,0l13.91-9.86c12.2-8.66,19.43-20.6,19.43-35.46V34.14a2,2,0,0,0-1.26-1.86L64.74,19.4a2.1,2.1,0,0,0-1.48,0L30.76,32.28a2,2,0,0,0-1.26,1.86V63.66Zm33.34,62-19.59-14c-16.79-12-26.75-29.4-26.75-50V24.8A2,2,0,0,1,17.76,23L63.26,4.75a2.1,2.1,0,0,1,1.48,0L110.24,23a2,2,0,0,1,1.26,1.84V61.56c0,20.64-10,38-26.75,50l-19.59,14A2,2,0,0,1,62.84,125.62Z"/><path class="uehrbfjd-wirr-2834" d="M64.74,19.4l32.5,12.88a2,2,0,0,1,1.26,1.86V63.66c0,14.86-7.23,26.8-19.43,35.46L65.16,109a2,2,0,0,1-2.32,0L48.93,99.12C36.73,90.46,29.5,78.52,29.5,63.66V34.14a2,2,0,0,1,1.26-1.86L63.26,19.4A2.1,2.1,0,0,1,64.74,19.4ZM62.48,84L88.41,49l-10-6L60.12,69,46.41,58.38,40.19,66.3Z"/><path class="d940fe7a-5de1-452f-957b-14b7301de731" d="M65.16,125.62l19.59-14c16.79-12,26.75-29.4,26.75-50V24.8A2,2,0,0,0,110.24,23L64.74,4.75a2.1,2.1,0,0,0-1.48,0L17.76,23A2,2,0,0,0,16.5,24.8V61.56c0,20.64,10,38,26.75,50l19.59,14A2,2,0,0,0,65.16,125.62Z"/><path class="d940fe7a-5de1-452f-957b-14b7301de731" d="M98.5,63.66V34.14a2,2,0,0,0-1.26-1.86L64.74,19.4a2.1,2.1,0,0,0-1.48,0L30.76,32.28a2,2,0,0,0-1.26,1.86V63.66c0,14.86,7.23,26.8,19.43,35.46L62.84,109a2,2,0,0,0,2.32,0l13.91-9.86C91.27,90.46,98.5,78.52,98.5,63.66Z"/></g></svg>
