<svg id="95f03945-c0fb-4dbe-a587-6a94bd693822" data-name="Livello 1" 
    xmlns="http://www.w3.org/2000/svg" viewBox="0 0 130 130">
    <defs>
        <style>.\38 07d3a9a-7cb5-4a36-a0e6-3b980728a692,.\38 d3826ef-cde8-4d9f-be21-6ba90d217544{fill:none;stroke:#242d3c;stroke-width:3px;}.\38 07d3a9a-7cb5-4a36-a0e6-3b980728a692{stroke-miterlimit:10;}.\38 d3826ef-cde8-4d9f-be21-6ba90d217544{stroke-linejoin:round;}</style>
    </defs>
    <title>My-Camper</title>
    <g id="dbd64e98-dce1-4659-b61b-4c01f6cd5c5d" data-name="Safe And Sound">
        <path class="807d3a9a-7cb5-4a36-a0e6-3b980728a692" d="M62.48,84L88.41,49l-10-6L60.12,69,46.41,58.38l-6.22,7.93Z"/>
        <path class="8d3826ef-cde8-4d9f-be21-6ba90d217544" d="M65.16,125.63l19.59-14c16.79-12,26.75-29.4,26.75-50.05V24.81A2,2,0,0,0,110.24,23L64.74,4.76a2,2,0,0,0-1.48,0L17.76,23a2,2,0,0,0-1.26,1.85V61.56c0,20.65,10,38,26.75,50.05l19.59,14A2,2,0,0,0,65.16,125.63Z"/>
        <path class="8d3826ef-cde8-4d9f-be21-6ba90d217544" d="M62.84,109a2,2,0,0,0,2.32,0l13.91-9.87c12.2-8.65,19.43-20.6,19.43-35.46V34.15a2,2,0,0,0-1.26-1.86L64.74,19.4a2.1,2.1,0,0,0-1.48,0L30.76,32.28a2,2,0,0,0-1.26,1.86V63.66c0,14.86,7.23,26.81,19.43,35.46Z"/>
    </g>
</svg>