<svg id="4f841cf2-a256-410d-b69b-1f43c62ab0fe" data-name="Livello 1" xmlns="http://www.w3.org/2000/svg" viewBox="0 0 130 130"><defs><style>.\33 53e23b8-1bf8-47dd-922c-73d5ce3b963b,.c816d7a2-237d-4b55-bf8a-22dad088dc88{fill:none;stroke:#242d3c;stroke-miterlimit:10;stroke-width:3px;}.c816d7a2-237d-4b55-bf8a-22dad088dc88{stroke-linecap:round;}</style></defs><title>My-Camper</title><g id="f06ca640-f142-4709-a529-d99c269ea574" data-name="Search For A Vehicle"><path class="353e23b8-1bf8-47dd-922c-73d5ce3b963b" d="M88.5,89.67V119.5a2,2,0,0,1-2,2h-84a1,1,0,0,1-1-1v-84l25-26h61a1,1,0,0,1,1,1v14"/><line class="c816d7a2-237d-4b55-bf8a-22dad088dc88" x1="17.5" y1="57.5" x2="39.5" y2="57.5"/><line class="c816d7a2-237d-4b55-bf8a-22dad088dc88" x1="17.5" y1="71.5" x2="41.5" y2="71.5"/><g id="73891e0e-bb4e-49ca-a602-6078d8efaeb1" data-name="Large Selection of Campers"><line class="c816d7a2-237d-4b55-bf8a-22dad088dc88" x1="17.5" y1="85.5" x2="54.5" y2="85.5"/></g><g id="b1660da0-f5ff-41bd-bc02-89c5e365bbf7" data-name="Large Selection of Campers"><line class="c816d7a2-237d-4b55-bf8a-22dad088dc88" x1="17.5" y1="99.5" x2="75.5" y2="99.5"/></g><polyline class="353e23b8-1bf8-47dd-922c-73d5ce3b963b" points="2 36.5 26.5 36.5 26.5 10"/><circle class="353e23b8-1bf8-47dd-922c-73d5ce3b963b" cx="75" cy="58" r="34.5" transform="translate(-19.05 70.02) rotate(-45)"/><rect class="c816d7a2-237d-4b55-bf8a-22dad088dc88" x="102.75" y="92.21" width="23.91" height="15" rx="2" ry="2" transform="translate(125.31 251.32) rotate(-135)"/><line class="c816d7a2-237d-4b55-bf8a-22dad088dc88" x1="102.36" y1="95.14" x2="94.81" y2="87.59"/><line class="c816d7a2-237d-4b55-bf8a-22dad088dc88" x1="102.59" y1="79.81" x2="110.14" y2="87.36"/><circle class="353e23b8-1bf8-47dd-922c-73d5ce3b963b" cx="75" cy="58" r="22.5" transform="translate(-19.05 70.02) rotate(-45)"/></g></svg>