<svg id="e51b0e6c-eff4-4ff0-b4f9-6db7022e5fdb" data-name="Livello 1" xmlns="http://www.w3.org/2000/svg" viewBox="0 0 130 130"><defs><style>.f51d7818-8e45-4992-be4b-3ce973d895d1{fill:#fff;}.ae83913f-a39a-426a-99e9-799dd609ccd0{fill:#f15424;}.a0b8678a-fef2-41c9-aaba-e870d624d21f{fill:#57c5d0;}.\39 f83e710-1630-4768-97d9-9823482c9e4b,.ff561067-4ccc-4b6e-8ede-34e72bcbfc4c{fill:none;stroke:#242d3c;stroke-miterlimit:10;stroke-width:3px;}.\39 f83e710-1630-4768-97d9-9823482c9e4b{stroke-linecap:round;}</style></defs><title>My-Camper</title><g id="0914e780-ca42-42b0-a92d-7791ddf73121" data-name="Search For A Vehicle Colored"><path class="f51d7818-8e45-4992-be4b-3ce973d895d1" d="M110.14,87.36l-7.78,7.78-7.55-7.55-0.63-.9A34.48,34.48,0,0,0,99.4,82.4a32.44,32.44,0,0,0,2.66-3l0.53,0.41Z"/><path class="ae83913f-a39a-426a-99e9-799dd609ccd0" d="M127.05,101.44a2,2,0,0,1,0,2.83l-7.78,7.78a2,2,0,0,1-2.83,0L101,96.55l1.41-1.41,7.78-7.78L111.55,86Z"/><path class="f51d7818-8e45-4992-be4b-3ce973d895d1" d="M88.5,89.76A34.51,34.51,0,0,1,54.17,85.5a33.44,33.44,0,0,1-3.57-3.1,34.51,34.51,0,1,1,51.46-3,32.44,32.44,0,0,1-2.66,3,34.48,34.48,0,0,1-5.22,4.29A33.23,33.23,0,0,1,88.5,89.76Zm2.41-15.85a22.5,22.5,0,1,0-31.82,0A22.49,22.49,0,0,0,90.91,73.91Z"/><polygon class="a0b8678a-fef2-41c9-aaba-e870d624d21f" points="26.5 10.5 26.5 36.5 2 36.5 1.74 36.25 26.5 10.5"/><path class="f51d7818-8e45-4992-be4b-3ce973d895d1" d="M54.17,85.5A34.51,34.51,0,0,0,88.5,89.76V119.5a2,2,0,0,1-2,2h-84a1,1,0,0,1-1-1v-84l0.24-.25L2,36.5H26.5v-26h61a1,1,0,0,1,1,1v14l-0.27.63A34.51,34.51,0,0,0,50.6,82.4,33.44,33.44,0,0,0,54.17,85.5Z"/><circle class="a0b8678a-fef2-41c9-aaba-e870d624d21f" cx="75" cy="58" r="23" transform="translate(-19.05 70.02) rotate(-45)"/><path class="ff561067-4ccc-4b6e-8ede-34e72bcbfc4c" d="M88.5,89.67V119.5a2,2,0,0,1-2,2h-84a1,1,0,0,1-1-1v-84l0.24-.25L26.5,10.5h61a1,1,0,0,1,1,1v14"/><line class="9f83e710-1630-4768-97d9-9823482c9e4b" x1="17.5" y1="57.5" x2="39.5" y2="57.5"/><line class="9f83e710-1630-4768-97d9-9823482c9e4b" x1="17.5" y1="71.5" x2="41.5" y2="71.5"/><line class="9f83e710-1630-4768-97d9-9823482c9e4b" x1="17.5" y1="85.5" x2="53.17" y2="85.5"/><line class="9f83e710-1630-4768-97d9-9823482c9e4b" x1="17.5" y1="99.5" x2="75.5" y2="99.5"/><polyline class="ff561067-4ccc-4b6e-8ede-34e72bcbfc4c" points="2 36.5 26.5 36.5 26.5 10.5 26.5 10"/><path class="ff561067-4ccc-4b6e-8ede-34e72bcbfc4c" d="M88.23,26.13A34.5,34.5,0,0,1,102.06,79.4a32.44,32.44,0,0,1-2.66,3,34.48,34.48,0,0,1-5.22,4.29,33.23,33.23,0,0,1-5.68,3.07A34.51,34.51,0,0,1,54.17,85.5a33.44,33.44,0,0,1-3.57-3.1A34.51,34.51,0,0,1,88.23,26.13Z"/><path class="9f83e710-1630-4768-97d9-9823482c9e4b" d="M113,87.36L127,101.44a2,2,0,0,1,0,2.83l-7.78,7.78a2,2,0,0,1-2.83,0L102.36,98a2,2,0,0,1,0-2.83l7.77-7.77A2,2,0,0,1,113,87.36Z"/><line class="9f83e710-1630-4768-97d9-9823482c9e4b" x1="102.36" y1="95.14" x2="94.81" y2="87.59"/><line class="9f83e710-1630-4768-97d9-9823482c9e4b" x1="102.59" y1="79.81" x2="110.14" y2="87.36"/></g></svg>