<?xml version="1.0" encoding="UTF-8"?>
<svg width="15px" height="25px" viewBox="0 0 15 25" version="1.1" xmlns="http://www.w3.org/2000/svg" xmlns:xlink="http://www.w3.org/1999/xlink">
    <!-- Generator: sketchtool 61.1 (101010) - https://sketch.com -->
    <title>87A8EE47-AB10-4992-BD1B-7C2E1FA7734A</title>
    <desc>Created with sketchtool.</desc>
    <g id="01_Desktop" stroke="none" stroke-width="1" fill="none" fill-rule="evenodd" stroke-linecap="round" stroke-linejoin="round">
        <g id="page/rent/SEO" transform="translate(-114.000000, -1090.000000)" stroke="#FFFFFF">
            <g id="molecule/teaser/ratings/v6-copy-3" transform="translate(100.625000, 836.500000)">
                <g id="Group" transform="translate(14.000000, 251.000000)">
                    <g id="atom/icon/bed" transform="translate(0.000000, 3.000000)">
                        <path d="M0.399835,19.6086982 L0.399835,21.6332073 C0.399835,22.7456073 1.18936,23.6567345 2.153785,23.6567345 L12.11896,23.6567345 C13.083385,23.6567345 13.87291,22.7456073 13.87291,21.6332073 L13.87291,19.6086982 L0.399835,19.6086982 Z" id="Stroke-1" fill="#242D3C"></path>
                        <path d="M4.1848525,5.30478545 C3.0653275,6.00384 2.2890025,7.38624 2.2890025,8.98758545 L2.2890025,19.6088945 L11.9835775,19.6088945 L11.9835775,8.98758545 C11.9835775,7.38624 11.2072525,6.00384 10.0877275,5.30478545" id="Stroke-3" fill="#242D3C"></path>
                        <path d="M4.1247925,4.79325818 C4.1247925,5.94100364 4.9143175,6.88060364 5.8787425,6.88060364 L8.3941675,6.88060364 C9.3585925,6.88060364 10.1481175,5.94100364 10.1481175,4.79325818 L10.1481175,2.79624 C10.1481175,1.64849455 9.3585925,0.708894545 8.3941675,0.708894545 L5.8787425,0.708894545 C4.9143175,0.708894545 4.1247925,1.64849455 4.1247925,2.79624 L4.1247925,4.79325818 Z" id="Stroke-5" fill="#242D3C"></path>
                        <path d="M12.988345,6.12067636 C12.988345,6.12067636 11.17252,10.2875127 8.267695,13.1367491 C5.210245,16.1371855 1.109995,17.14944 1.109995,17.14944" id="Stroke-7"></path>
                    </g>
                </g>
            </g>
        </g>
    </g>
</svg>