<svg id="12c0f1a7-f616-497f-94e7-f3f6a7bd2cf0" data-name="Livello 1" xmlns="http://www.w3.org/2000/svg" viewBox="0 0 130 130"><defs><style>.\38 83e5406-5f28-4bc5-8d05-afbc60b0fe51{fill:#fff;}.\39 fa929d5-4a53-44be-814b-e52280dd551d{fill:#57c5d0;}.\39 8e1fe41-00f7-488b-a6fc-a146bd7ed859{fill:#f15424;}.\30 48afcd9-a8cd-42b0-8455-17c3ec538856,.\32 e2ae973-2fd9-4edd-9a0a-1aa724b7e99e{fill:none;stroke:#242d3c;stroke-miterlimit:10;stroke-width:3px;}.\30 48afcd9-a8cd-42b0-8455-17c3ec538856{stroke-linecap:round;}</style></defs><title>My-Camper</title><g id="2e08d9b6-2043-4ccf-b621-dec15a9be2ac" data-name="Large selection of Campers Colored"><path class="883e5406-5f28-4bc5-8d05-afbc60b0fe51" d="M28.68,72.5a6.5,6.5,0,0,1,12.66.07l0,0.13A6.23,6.23,0,0,1,41.5,74a6.5,6.5,0,0,1-13,0,6.23,6.23,0,0,1,.13-1.3A1.46,1.46,0,0,1,28.68,72.5Z"/><path class="883e5406-5f28-4bc5-8d05-afbc60b0fe51" d="M90.32,72.5a1.46,1.46,0,0,1,.05.2A6.23,6.23,0,0,1,90.5,74a6.5,6.5,0,0,1-13,0,6.23,6.23,0,0,1,.13-1.3h0A6.5,6.5,0,0,1,90.32,72.5Z"/><path class="883e5406-5f28-4bc5-8d05-afbc60b0fe51" d="M128.5,9.5v103a2,2,0,0,1-2,2h-7v-96a2,2,0,0,0-2-2H11.5v-7a2,2,0,0,1,2-2h113A2,2,0,0,1,128.5,9.5Z"/><polygon class="9fa929d5-4a53-44be-814b-e52280dd551d" points="90.54 46.77 98.13 57.77 81.41 57.77 81.41 46.5 90.54 46.5 90.54 46.77"/><path class="98e1fe41-00f7-488b-a6fc-a146bd7ed859" d="M67.5,72v0.5h-13v-25a1,1,0,0,1,1-1h10.9a1,1,0,0,1,1,1V72Z"/><path class="883e5406-5f28-4bc5-8d05-afbc60b0fe51" d="M98.13,57.77L101.75,63a6.32,6.32,0,0,1,.75,3A6.53,6.53,0,0,1,96,72.5H90.32a6.5,6.5,0,0,0-12.69.19l-0.74-.19H67.5v-25a1,1,0,0,0-1-1H55.55a1,1,0,0,0-1,1v25H41.63l-0.29.07a6.5,6.5,0,0,0-12.66-.07H20.5a1,1,0,0,1-1-1v-37a1,1,0,0,1,1-1H93.76a6.5,6.5,0,1,1,0,13H81.41V57.77H98.13Z"/><path class="883e5406-5f28-4bc5-8d05-afbc60b0fe51" d="M11.5,16.5h106a2,2,0,0,1,2,2v103a2,2,0,0,1-2,2H4.5a2,2,0,0,1-2-2V18.5a2,2,0,0,1,2-2h7Zm30.13,56H76.89l0.74,0.19h0A6.23,6.23,0,0,0,77.5,74a6.5,6.5,0,0,0,13,0,6.23,6.23,0,0,0-.13-1.3,1.46,1.46,0,0,0-.05-0.2H96A6.53,6.53,0,0,0,102.5,66a6.32,6.32,0,0,0-.75-3l-3.62-5.23-7.59-11V46.5h3.22a6.5,6.5,0,1,0,0-13H20.5a1,1,0,0,0-1,1v37a1,1,0,0,0,1,1h8.18a1.46,1.46,0,0,0-.05.2A6.23,6.23,0,0,0,28.5,74a6.5,6.5,0,0,0,13,0,6.23,6.23,0,0,0-.13-1.3l0-.13Z"/><path class="2e2ae973-2fd9-4edd-9a0a-1aa724b7e99e" d="M11.5,17V9.5a2,2,0,0,1,2-2h113a2,2,0,0,1,2,2v103a2,2,0,0,1-2,2H120"/><path class="2e2ae973-2fd9-4edd-9a0a-1aa724b7e99e" d="M119.5,114.5v7a2,2,0,0,1-2,2H4.5a2,2,0,0,1-2-2V18.5a2,2,0,0,1,2-2h113a2,2,0,0,1,2,2v96Z"/><polyline class="2e2ae973-2fd9-4edd-9a0a-1aa724b7e99e" points="76.89 72.5 67.5 72.5 54.5 72.5 41.63 72.5"/><path class="2e2ae973-2fd9-4edd-9a0a-1aa724b7e99e" d="M41.34,72.57l0,0.13A6.23,6.23,0,0,1,41.5,74a6.5,6.5,0,0,1-13,0,6.23,6.23,0,0,1,.13-1.3,1.46,1.46,0,0,1,.05-0.2A6.5,6.5,0,0,1,41.34,72.57Z"/><polyline class="2e2ae973-2fd9-4edd-9a0a-1aa724b7e99e" points="96.82 72.5 95.95 72.5 90.32 72.5 89.96 72.5"/><path class="2e2ae973-2fd9-4edd-9a0a-1aa724b7e99e" d="M90.54,46.77l7.59,11L101.75,63a6.32,6.32,0,0,1,.75,3A6.53,6.53,0,0,1,96,72.5"/><path class="2e2ae973-2fd9-4edd-9a0a-1aa724b7e99e" d="M54.5,72V47.48a1,1,0,0,1,1-1h10.9a1,1,0,0,1,1,1V72"/><path class="2e2ae973-2fd9-4edd-9a0a-1aa724b7e99e" d="M98.13,57.77H81.41V46.5H93.76a6.5,6.5,0,1,0,0-13H20.5a1,1,0,0,0-1,1v37a1,1,0,0,0,1,1h8.9"/><path class="2e2ae973-2fd9-4edd-9a0a-1aa724b7e99e" d="M90.32,72.5a1.46,1.46,0,0,1,.05.2A6.23,6.23,0,0,1,90.5,74a6.5,6.5,0,0,1-13,0,6.23,6.23,0,0,1,.13-1.3h0A6.5,6.5,0,0,1,90.32,72.5Z"/><line class="048afcd9-a8cd-42b0-8455-17c3ec538856" x1="48" y1="94.5" x2="75" y2="94.5"/><line class="048afcd9-a8cd-42b0-8455-17c3ec538856" x1="43" y1="105.5" x2="80" y2="105.5"/><rect class="9fa929d5-4a53-44be-814b-e52280dd551d" x="27" y="45" width="21" height="13"/></g></svg>