<svg id="6bb2fff9-e52a-40a9-990c-4ab2eff0e8c2" data-name="Livello 1" xmlns="http://www.w3.org/2000/svg" viewBox="0 0 130 130"><defs><style>.\34 70e0e4a-9612-413a-8b5e-7ad8bdd67611,.\34 e105ca9-14af-4422-a086-72cde2714b9c{fill:none;stroke:#242d3c;stroke-miterlimit:10;stroke-width:3px;}.\34 e105ca9-14af-4422-a086-72cde2714b9c{stroke-linecap:round;}</style></defs><title>My-Camper</title><g id="a5bcc1eb-1a29-42f0-a699-0462df3dbe10" data-name="Large selection of Campers"><path class="470e0e4a-9612-413a-8b5e-7ad8bdd67611" d="M11.5,17V9.5a2,2,0,0,1,2-2h113a2,2,0,0,1,2,2v103a2,2,0,0,1-2,2H120"/><rect class="470e0e4a-9612-413a-8b5e-7ad8bdd67611" x="2.5" y="16.5" width="117" height="107" rx="2" ry="2"/><rect class="470e0e4a-9612-413a-8b5e-7ad8bdd67611" x="28.5" y="46.5" width="18" height="10"/><line class="470e0e4a-9612-413a-8b5e-7ad8bdd67611" x1="76.89" y1="72.5" x2="41.63" y2="72.5"/><path class="470e0e4a-9612-413a-8b5e-7ad8bdd67611" d="M41.37,72.7A6.42,6.42,0,0,1,41.5,74a6.5,6.5,0,0,1-13,0,6.42,6.42,0,0,1,.13-1.3A6.5,6.5,0,0,1,41.37,72.7Z"/><path class="470e0e4a-9612-413a-8b5e-7ad8bdd67611" d="M90.54,46.77L101.75,63a6.31,6.31,0,0,1,.75,3,6.53,6.53,0,0,1-6.55,6.5H90"/><path class="470e0e4a-9612-413a-8b5e-7ad8bdd67611" d="M54.5,72V47.48a1,1,0,0,1,1.05-1h10.9a1,1,0,0,1,1.05,1V72"/><path class="470e0e4a-9612-413a-8b5e-7ad8bdd67611" d="M98.13,57.77H81.41V46.5H93.76a6.5,6.5,0,1,0,0-13H20.5a1,1,0,0,0-1,1v37a1,1,0,0,0,1,1h8.9"/><path class="470e0e4a-9612-413a-8b5e-7ad8bdd67611" d="M90.37,72.7A6.42,6.42,0,0,1,90.5,74a6.5,6.5,0,0,1-13,0,6.42,6.42,0,0,1,.13-1.3A6.5,6.5,0,0,1,90.37,72.7Z"/><line class="4e105ca9-14af-4422-a086-72cde2714b9c" x1="48" y1="94.5" x2="75" y2="94.5"/><line class="4e105ca9-14af-4422-a086-72cde2714b9c" x1="43" y1="105.5" x2="80" y2="105.5"/></g></svg>