<svg id="b3a60165-502f-42bd-a8e9-7a45b53e40ff" data-name="Livello 1" xmlns="http://www.w3.org/2000/svg" viewBox="0 0 130 130"><defs><style>.a8963f55-2afb-4bd6-9c8a-929b081e4c57{fill:#242d3c;}.b8892fd2-c8cb-4535-8981-52d34fab2faa{fill:#fff;}</style></defs><title>My-Camper</title><g id="fa201609-517c-4a3f-b5b9-428fad6366b8" data-name="Send A Booking Request Colored"><path class="a8963f55-2afb-4bd6-9c8a-929b081e4c57" d="M122,77.2l-2.24-2-3.81,4.29-2.2-1.56L112,80.38l4.39,3.11Z"/><path class="b8892fd2-c8cb-4535-8981-52d34fab2faa" d="M114,67V63h-6v4h6Zm-12,9V72H96v4h6Zm0-9V63H96v4h6ZM90,76V72H84v4h6Zm0-9V63H84v4h6Z"/><path class="a8963f55-2afb-4bd6-9c8a-929b081e4c57" d="M122,69.7v0.8h-3V68.68A11,11,0,0,1,122,69.7Z"/><rect class="a8963f55-2afb-4bd6-9c8a-929b081e4c57" x="119" y="55" width="2" height="3"/><rect class="a8963f55-2afb-4bd6-9c8a-929b081e4c57" x="108" y="63" width="6" height="4"/><path class="a8963f55-2afb-4bd6-9c8a-929b081e4c57" d="M113.5,45v0.5a1.5,1.5,0,0,1-3,0V45h3Z"/><path class="a8963f55-2afb-4bd6-9c8a-929b081e4c57" d="M107.5,81v3H107a10.55,10.55,0,0,1-.85-3h1.39Z"/><rect class="a8963f55-2afb-4bd6-9c8a-929b081e4c57" x="96" y="72" width="6" height="4"/><rect class="a8963f55-2afb-4bd6-9c8a-929b081e4c57" x="96" y="63" width="6" height="4"/><rect class="a8963f55-2afb-4bd6-9c8a-929b081e4c57" x="84" y="72" width="6" height="4"/><rect class="a8963f55-2afb-4bd6-9c8a-929b081e4c57" x="84" y="63" width="6" height="4"/><path class="a8963f55-2afb-4bd6-9c8a-929b081e4c57" d="M87.5,45v0.5a1.5,1.5,0,0,1-3,0V45h3Z"/><rect class="a8963f55-2afb-4bd6-9c8a-929b081e4c57" x="77" y="55" width="2" height="3"/><path class="a8963f55-2afb-4bd6-9c8a-929b081e4c57" d="M122,69.7V45h-9V40.5a1.5,1.5,0,0,0-3,0V45H87V40.5a1.5,1.5,0,0,0-3,0V45H76V81.5A2.5,2.5,0,0,0,78.5,84H107A11,11,0,1,0,122,69.7ZM79,48h40v7H79V48Zm27.11,33H79V58h40V68.68A11,11,0,0,0,106,79.5,9.3,9.3,0,0,0,106.11,81ZM117,87.5a8,8,0,1,1,8-8A8,8,0,0,1,117,87.5Z"/><rect class="a8963f55-2afb-4bd6-9c8a-929b081e4c57" x="67.5" y="63" width="3" height="3"/><rect class="a8963f55-2afb-4bd6-9c8a-929b081e4c57" x="60.5" y="63" width="3" height="3"/><rect class="a8963f55-2afb-4bd6-9c8a-929b081e4c57" x="53.5" y="63" width="3" height="3"/><path class="a8963f55-2afb-4bd6-9c8a-929b081e4c57" d="M37.5,66.5a1.5,1.5,0,0,1,0,3h-23a1.5,1.5,0,0,1,0-3h23Z"/><path class="a8963f55-2afb-4bd6-9c8a-929b081e4c57" d="M28.5,57.5a1.5,1.5,0,0,1,0,3h-14a1.5,1.5,0,0,1,0-3h14Z"/><path class="a8963f55-2afb-4bd6-9c8a-929b081e4c57" d="M21.54,78H46V48H6V78h6.78v6.76ZM49,47.5v31A2.5,2.5,0,0,1,46.5,81H22.57L9.78,90.87V81H5.5A2.5,2.5,0,0,1,3,78.5v-31A2.5,2.5,0,0,1,5.5,45h41A2.5,2.5,0,0,1,49,47.5Z"/></g></svg>