<svg id="c120c54a-3c7d-4e93-9096-af8da1269abc" data-name="Livello 1" xmlns="http://www.w3.org/2000/svg" viewBox="0 0 130 130"><defs><style>.\37 8b03936-f0db-4812-8035-8aad5b95995a{fill:#57c5d0;}.\36 bbe9462-2c6f-4955-b040-41f1dce0f891{fill:#fff;}.\30 2be7e33-eeac-4e02-9a07-e7e714e8c777{fill:#f15424;}.\33 78082fc-da7a-4449-adb0-cdd898cf84b3{fill:#242d3c;}.a6432ff2-ac2a-4937-a041-ccf9af7b56ad{fill:#2ab2b8;}</style></defs><title>My-Camper</title><g id="99f472be-e222-426b-ac0e-ea46add252dc" data-name="Send A Booking Request Colored"><path class="78b03936-f0db-4812-8035-8aad5b95995a" d="M122,77.2l-2.24-2-3.81,4.29-2.2-1.56L112,80.38l4.39,3.11Zm-5-5.7a8,8,0,1,1-8,8A8,8,0,0,1,117,71.5Z"/><path class="6bbe9462-2c6f-4955-b040-41f1dce0f891" d="M114,67V63h-6v4h6Zm3,1.5a11,11,0,0,0-11,11,9.3,9.3,0,0,0,.11,1.5H79V58h40V68.68A11,11,0,0,0,117,68.5ZM102,76V72H96v4h6Zm0-9V63H96v4h6ZM90,76V72H84v4h6Zm0-9V63H84v4h6Z"/><polygon class="02be7e33-eeac-4e02-9a07-e7e714e8c777" points="119 48 119 55 79 55 79 48 86 48 119 48"/><path class="78b03936-f0db-4812-8035-8aad5b95995a" d="M46,48V78H21.54l-8.76,6.76V78H6V48H46ZM39,68a1.5,1.5,0,0,0-1.5-1.5h-23a1.5,1.5,0,0,0,0,3h23A1.5,1.5,0,0,0,39,68Zm-9-9a1.5,1.5,0,0,0-1.5-1.5h-14a1.5,1.5,0,0,0,0,3h14A1.5,1.5,0,0,0,30,59Z"/><path class="378082fc-da7a-4449-adb0-cdd898cf84b3" d="M122,69.7v0.8h-3V68.68A11,11,0,0,1,122,69.7Z"/><rect class="378082fc-da7a-4449-adb0-cdd898cf84b3" x="119" y="55" width="2" height="3"/><rect class="a6432ff2-ac2a-4937-a041-ccf9af7b56ad" x="108" y="63" width="6" height="4"/><path class="378082fc-da7a-4449-adb0-cdd898cf84b3" d="M113.5,45v0.5a1.5,1.5,0,0,1-3,0V45h3Z"/><path class="378082fc-da7a-4449-adb0-cdd898cf84b3" d="M107.5,81v3H107a10.55,10.55,0,0,1-.85-3h1.39Z"/><rect class="a6432ff2-ac2a-4937-a041-ccf9af7b56ad" x="96" y="72" width="6" height="4"/><rect class="a6432ff2-ac2a-4937-a041-ccf9af7b56ad" x="96" y="63" width="6" height="4"/><rect class="a6432ff2-ac2a-4937-a041-ccf9af7b56ad" x="84" y="72" width="6" height="4"/><rect class="a6432ff2-ac2a-4937-a041-ccf9af7b56ad" x="84" y="63" width="6" height="4"/><path class="378082fc-da7a-4449-adb0-cdd898cf84b3" d="M87.5,45v0.5a1.5,1.5,0,0,1-3,0V45h3Z"/><rect class="378082fc-da7a-4449-adb0-cdd898cf84b3" x="77" y="55" width="2" height="3"/><path class="378082fc-da7a-4449-adb0-cdd898cf84b3" d="M122,69.7V45h-9V40.5a1.5,1.5,0,0,0-3,0V45H87V40.5a1.5,1.5,0,0,0-3,0V45H76V81.5A2.5,2.5,0,0,0,78.5,84H107A11,11,0,1,0,122,69.7ZM79,48h40v7H79V48Zm27.11,33H79V58h40V68.68A11,11,0,0,0,106,79.5,9.3,9.3,0,0,0,106.11,81ZM117,87.5a8,8,0,1,1,8-8A8,8,0,0,1,117,87.5Z"/><rect class="378082fc-da7a-4449-adb0-cdd898cf84b3" x="67.5" y="63" width="3" height="3"/><rect class="378082fc-da7a-4449-adb0-cdd898cf84b3" x="60.5" y="63" width="3" height="3"/><rect class="378082fc-da7a-4449-adb0-cdd898cf84b3" x="53.5" y="63" width="3" height="3"/><path class="6bbe9462-2c6f-4955-b040-41f1dce0f891" d="M37.5,66.5a1.5,1.5,0,0,1,0,3h-23a1.5,1.5,0,0,1,0-3h23Z"/><path class="6bbe9462-2c6f-4955-b040-41f1dce0f891" d="M28.5,57.5a1.5,1.5,0,0,1,0,3h-14a1.5,1.5,0,0,1,0-3h14Z"/><path class="378082fc-da7a-4449-adb0-cdd898cf84b3" d="M21.54,78H46V48H6V78h6.78v6.76ZM49,47.5v31A2.5,2.5,0,0,1,46.5,81H22.57L9.78,90.87V81H5.5A2.5,2.5,0,0,1,3,78.5v-31A2.5,2.5,0,0,1,5.5,45h41A2.5,2.5,0,0,1,49,47.5Z"/></g></svg>