<?xml version="1.0" encoding="UTF-8"?>
<svg width="17px" height="17px" viewBox="0 0 17 17" version="1.1" xmlns="http://www.w3.org/2000/svg" xmlns:xlink="http://www.w3.org/1999/xlink">
    <!-- Generator: Sketch 51.2 (57519) - http://www.bohemiancoding.com/sketch -->
    <title>Shape</title>
    <desc>Created with Sketch.</desc>
    <defs></defs>
    <g id="Symbols" stroke="none" stroke-width="1" fill="none" fill-rule="evenodd">
        <g id="Footer" transform="translate(-1028.000000, -333.000000)" fill="#FFFFFF" fill-rule="nonzero">
            <g id="Group-10" transform="translate(956.000000, 332.000000)">
                <path d="M88.3582755,1.64216608 C87.9303041,1.21399074 87.4174363,1 86.8199433,1 L74.1804444,1 C73.5827576,1 73.0700447,1.21406829 72.6419571,1.64216608 C72.2139469,2.07014756 72,2.58304292 72,3.18073584 L72,15.8227069 C72,16.4203223 72.2139082,16.933334 72.6419571,17.3613542 C73.0700447,17.7894133 73.5828738,18.0035591 74.1804444,18.0035591 L86.8197882,18.0035591 C87.4171649,18.0035591 87.9301879,17.7894133 88.3581592,17.3613542 C88.7862469,16.933334 89,16.4203223 89,15.8227069 L89,3.18073584 C88.9999612,2.5829266 88.7862469,2.07030266 88.3582755,1.64216608 Z M78.1040581,7.12717639 C78.7717554,6.4815207 79.5742018,6.15853776 80.5112808,6.15853776 C81.4556089,6.15853776 82.2616604,6.4815207 82.9295129,7.12717639 C83.5973653,7.77294841 83.9310977,8.55345821 83.9310977,9.46855069 C83.9310977,10.3835269 83.5973653,11.1640754 82.9295129,11.8096536 C82.2616604,12.4555807 81.4558803,12.7785249 80.5112808,12.7785249 C79.5742405,12.7785249 78.7718717,12.4553093 78.1040581,11.8096536 C77.4362056,11.1639979 77.1023182,10.3835269 77.1023182,9.46855069 C77.1023182,8.55345821 77.4362056,7.77298718 78.1040581,7.12717639 Z M87.0745165,15.3690186 C87.0745165,15.5607534 87.0079173,15.721198 86.8752229,15.85043 C86.7421409,15.9795456 86.5837449,16.0441422 86.3991047,16.0441422 L74.567867,16.0441422 C74.3760552,16.0441422 74.2154497,15.9795456 74.086438,15.85043 C73.9572325,15.7214694 73.8926879,15.5607534 73.8926879,15.3690186 L73.8926879,8.19538528 L75.4531941,8.19538528 C75.3056912,8.66039541 75.2319204,9.14386172 75.2319204,9.64559032 C75.2319204,11.0628767 75.7483547,12.2711353 76.7813396,13.2713356 C77.8144408,14.2711481 79.0576899,14.771287 80.511242,14.771287 C81.4704561,14.771287 82.3558219,14.5424072 83.167727,14.0848803 C83.9793608,13.6270821 84.6208914,13.0054659 85.0934432,12.2194115 C85.5657235,11.4333959 85.8018443,10.5754167 85.8018443,9.64562909 C85.8018443,9.14390049 85.7278022,8.66055051 85.5802994,8.19542405 L87.074594,8.19538528 L87.074594,15.3690574 L87.0745165,15.3690574 L87.0745165,15.3690186 Z M87.0745165,5.48322036 C87.0745165,5.69724987 87.0007457,5.8780893 86.8529327,6.0256611 C86.7054299,6.17334922 86.5247438,6.24709634 86.3106418,6.24709634 L84.3849257,6.24709634 C84.1710563,6.24709634 83.9900988,6.17331044 83.842596,6.0256611 C83.6950544,5.8780893 83.6213224,5.69724987 83.6213224,5.48322036 L83.6213224,3.65683519 C83.6213224,3.45017263 83.6950544,3.27123311 83.842596,3.11990028 C83.9901376,2.96864501 84.1710951,2.89292043 84.3849257,2.89292043 L86.3106418,2.89292043 C86.5247438,2.89292043 86.7054687,2.96860623 86.8529327,3.11990028 C87.0007069,3.27123311 87.0745165,3.45017263 87.0745165,3.65683519 L87.0745165,5.48322036 Z" id="Shape"></path>
            </g>
        </g>
    </g>
</svg>