<svg id="7ed7ce02-467c-4ac8-af6c-19ff41f32a33" data-name="Livello 1" xmlns="http://www.w3.org/2000/svg" viewBox="0 0 130 130"><defs><style>.\36 b00634a-95c9-4d1e-8220-f60d847ce347{fill:none;stroke:#242d3c;stroke-miterlimit:10;stroke-width:3px;}</style></defs><title>My-Camper</title><g id="6da80793-bfb5-414c-86ab-56e1a3e23c85" data-name="Team"><line class="6b00634a-95c9-4d1e-8220-f60d847ce347" x1="50.5" y1="96.5" x2="81.5" y2="96.5"/><circle class="6b00634a-95c9-4d1e-8220-f60d847ce347" cx="65" cy="33" r="22.5" transform="translate(-4.3 55.63) rotate(-45)"/><path class="6b00634a-95c9-4d1e-8220-f60d847ce347" d="M80.91,48.91l-10-5.55a1,1,0,0,1-.51-0.87V40.92a1,1,0,0,1,.24-0.64A21.23,21.23,0,0,0,75.46,28a10.51,10.51,0,0,0-21,0,21.15,21.15,0,0,0,4.73,12.28,1,1,0,0,1,.24.64v1.57a1,1,0,0,1-.51.87l-9.82,5.55"/><circle class="6b00634a-95c9-4d1e-8220-f60d847ce347" cx="27" cy="95" r="22.5" transform="translate(-59.27 46.92) rotate(-45)"/><path class="6b00634a-95c9-4d1e-8220-f60d847ce347" d="M42.91,110.91l-10-5.55a1,1,0,0,1-.51-0.87v-1.57a1,1,0,0,1,.24-0.64A21.23,21.23,0,0,0,37.46,90a10.51,10.51,0,0,0-21,0,21.15,21.15,0,0,0,4.73,12.28,1,1,0,0,1,.24.64v1.57a1,1,0,0,1-.51.87l-9.82,5.55"/><circle class="6b00634a-95c9-4d1e-8220-f60d847ce347" cx="104" cy="94" r="22.5" transform="translate(-36.01 101.07) rotate(-45)"/><path class="6b00634a-95c9-4d1e-8220-f60d847ce347" d="M119.91,109.91l-10-5.55a1,1,0,0,1-.51-0.87v-1.57a1,1,0,0,1,.24-0.64A21.23,21.23,0,0,0,114.46,89a10.51,10.51,0,0,0-21,0,21.15,21.15,0,0,0,4.73,12.28,1,1,0,0,1,.24.64v1.57a1,1,0,0,1-.51.87l-9.82,5.55"/><line class="6b00634a-95c9-4d1e-8220-f60d847ce347" x1="30.25" y1="72.67" x2="52.17" y2="50.75"/><line class="6b00634a-95c9-4d1e-8220-f60d847ce347" x1="99.74" y1="72.67" x2="77.82" y2="50.75"/></g></svg>