<svg id="4a37f3e8-bf7d-427d-807d-ec1377f7a34d" data-name="Livello 1" xmlns="http://www.w3.org/2000/svg" viewBox="0 0 130 130"><defs><style>.\32 ee28fed-02ea-415b-8c11-565e40a7a222{fill:none;stroke:#242d3c;stroke-miterlimit:10;stroke-width:3px;}</style></defs><title>My-Camper</title><g id="fde03856-c964-493a-b12a-06bd3e5e6900" data-name="Testimonials"><g id="70f2e48b-101b-40ec-8d10-7d010c26ea43" data-name="Testimonials"><path class="2ee28fed-02ea-415b-8c11-565e40a7a222" d="M57.5,31.5v15h10V47c0,3.86-1.64,7.5-5.5,7.5H58.5v8H62c8.27,0,13.5-7.23,13.5-15.5V31.5h-18Z"/><path class="2ee28fed-02ea-415b-8c11-565e40a7a222" d="M28.5,31.5v15h10V47c0,3.86-1.64,7.5-5.5,7.5H29.5v8H33c8.27,0,13.5-7.23,13.5-15.5V31.5h-18Z"/></g><g id="e8be36bf-126d-4050-bff6-96de15a944f1" data-name="Testimonials Colored"><path class="2ee28fed-02ea-415b-8c11-565e40a7a222" d="M48,80H41L21,99V80H9a2,2,0,0,1-2-2V15a2,2,0,0,1,2-2H96a2,2,0,0,1,2,2V78a2,2,0,0,1-2,2H48Z"/><path class="2ee28fed-02ea-415b-8c11-565e40a7a222" d="M97.17,45H121a1,1,0,0,1,1,1V99a2,2,0,0,1-2,2H109v15L93,101H50a2,2,0,0,1-2-2V80.67"/></g></g></svg>