<svg id="f859d577-e11a-452e-aec4-5a453dda04aa" data-name="Livello 1" xmlns="http://www.w3.org/2000/svg" viewBox="0 0 130 130"><defs><style>.\31 a1761fb-b60e-4769-afce-a951a60d991c{fill:#2ab2b8;}.\33 2093dea-a45f-4c0c-92f6-a2a10508a6ab{fill:#f15424;}.\31 515ae69-784d-42d3-921b-c27cf6dde5e1{fill:#fff;}.af26e7bb-1cb0-4c68-a8ee-1be7b30e239b{fill:none;stroke:#242d3c;stroke-miterlimit:10;stroke-width:3px;}</style></defs><title>My-Camper</title><g id="6b55e715-3a4f-4d12-9268-391dd58ce0cd" data-name="Testimonials Colored"><path class="1a1761fb-b60e-4769-afce-a951a60d991c" d="M122,46V99a2,2,0,0,1-2,2H109v15L93,101H50a2,2,0,0,1-2-2V80H96a2,2,0,0,0,2-2V45h23A1,1,0,0,1,122,46Z"/><path class="32093dea-a45f-4c0c-92f6-a2a10508a6ab" d="M47,31V46.5C47,54.77,41.77,62,33.5,62H30V54h3.5c3.86,0,5.5-3.64,5.5-7.5V46H29V31H47Z"/><path class="32093dea-a45f-4c0c-92f6-a2a10508a6ab" d="M76,31V46.5C76,54.77,70.77,62,62.5,62H59V54h3.5c3.86,0,5.5-3.64,5.5-7.5V46H58V31H76Z"/><path class="1515ae69-784d-42d3-921b-c27cf6dde5e1" d="M98,45V78a2,2,0,0,1-2,2H40L21,99V80H9a2,2,0,0,1-2-2V15a2,2,0,0,1,2-2H96a2,2,0,0,1,2,2V45ZM76,46.5V31H58V46H68v0.5c0,3.86-1.64,7.5-5.5,7.5H59v8h3.5C70.77,62,76,54.77,76,46.5Zm-29,0V31H29V46H39v0.5c0,3.86-1.64,7.5-5.5,7.5H30v8h3.5C41.77,62,47,54.77,47,46.5Z"/><path class="af26e7bb-1cb0-4c68-a8ee-1be7b30e239b" d="M48,80H41L21,99V80H9a2,2,0,0,1-2-2V15a2,2,0,0,1,2-2H96a2,2,0,0,1,2,2V78a2,2,0,0,1-2,2H48Z"/><path class="af26e7bb-1cb0-4c68-a8ee-1be7b30e239b" d="M97.17,45H121a1,1,0,0,1,1,1V99a2,2,0,0,1-2,2H109v15L93,101H50a2,2,0,0,1-2-2V80.67"/></g></svg>